<svg width="90" height="90" viewBox="0 0 90 90" fill="none" xmlns="http://www.w3.org/2000/svg">
<path d="M45 90C69.8528 90 90 69.8528 90 45C90 20.1472 69.8528 0 45 0C20.1472 0 0 20.1472 0 45C0 69.8528 20.1472 90 45 90Z" fill="#B9EEE9"/>
<mask id="mask0_213_1490" style="mask-type:luminance" maskUnits="userSpaceOnUse" x="0" y="0" width="90" height="90">
<path d="M45 90C69.8528 90 90 69.8528 90 45C90 20.1472 69.8528 0 45 0C20.1472 0 0 20.1472 0 45C0 69.8528 20.1472 90 45 90Z" fill="white"/>
</mask>
<g mask="url(#mask0_213_1490)">
<path fill-rule="evenodd" clip-rule="evenodd" d="M45 11.5714C54.9412 11.5714 63 19.6303 63 29.5714L63.0003 31.5534C64.8244 31.8595 66.2143 33.446 66.2143 35.3571V39.8571C66.2143 41.8026 64.7741 43.4116 62.9017 43.6762C62.2376 50.0421 58.2551 55.4213 52.7146 58.0534L52.7143 63.9643H54C66.7815 63.9643 77.1429 74.3257 77.1429 87.1071V90H12.8572V87.1071C12.8572 74.3257 23.2186 63.9643 36 63.9643H37.2857L37.2857 58.0535C31.7451 55.4215 27.7625 50.0422 27.0981 43.676C25.226 43.4116 23.7857 41.8026 23.7857 39.8571V35.3571C23.7857 33.4459 25.1758 31.8594 27.0001 31.5533L27 29.5714C27 19.6303 35.0589 11.5714 45 11.5714Z" fill="#EAC7A8"/>
<path fill-rule="evenodd" clip-rule="evenodd" d="M37.2852 58.0533C39.6234 59.1641 42.2391 59.7857 45 59.7857C47.7607 59.7857 50.3762 59.1642 52.7143 58.0535L52.7144 59.7683C50.6063 61.1995 48.0615 62.0357 45.3214 62.0357C42.2965 62.0357 39.5096 61.0166 37.2853 59.3029L37.2852 58.0533Z" fill="black" fill-opacity="0.24"/>
<path fill-rule="evenodd" clip-rule="evenodd" d="M42.4287 41.4643C42.4287 43.2395 43.7296 44.0357 45.0001 44.0357C46.2707 44.0357 47.5716 43.2395 47.5716 41.4643C46.875 41.6995 46.0096 41.8171 44.9756 41.8171C43.9525 41.8171 43.1035 41.6995 42.4287 41.4643Z" fill="black" fill-opacity="0.16"/>
<path fill-rule="evenodd" clip-rule="evenodd" d="M34.3929 64.3975C34.3929 68.2106 39.2138 71.3018 45.1607 71.3018C51.1077 71.3018 55.9286 68.2106 55.9286 64.3975C55.9286 64.284 55.9243 64.1713 55.9159 64.0592C67.801 65.033 77.1429 74.9874 77.1429 87.1238V90H12.8572V87.1238C12.8572 74.8775 22.3691 64.8528 34.4079 64.0348C34.3978 64.1555 34.3929 64.2761 34.3929 64.3975Z" fill="#8F1CC1"/>
<mask id="mask1_213_1490" style="mask-type:luminance" maskUnits="userSpaceOnUse" x="12" y="64" width="66" height="26">
<g opacity="0.6">
<path fill-rule="evenodd" clip-rule="evenodd" d="M34.3929 64.3975C34.3929 68.2106 39.2138 71.3018 45.1607 71.3018C51.1077 71.3018 55.9286 68.2106 55.9286 64.3975C55.9286 64.284 55.9243 64.1713 55.9159 64.0592C67.801 65.033 77.1429 74.9874 77.1429 87.1238V90H12.8572V87.1238C12.8572 74.8775 22.3691 64.8528 34.4079 64.0348C34.3978 64.1555 34.3929 64.2761 34.3929 64.3975Z" fill="white" fill-opacity="0.16"/>
</g>
</mask>
<g mask="url(#mask1_213_1490)">
<g opacity="0.6">
<path d="M45.1607 73.5306C52.1967 73.5306 57.9005 69.6575 57.9005 64.8797C57.9005 60.1019 52.1967 56.2288 45.1607 56.2288C38.1247 56.2288 32.4209 60.1019 32.4209 64.8797C32.4209 69.6575 38.1247 73.5306 45.1607 73.5306Z" fill="black" fill-opacity="0.16"/>
</g>
</g>
<path d="M40.5 48.2143C40.5 49.9409 42.4794 51.1071 45 51.1071C47.5206 51.1071 49.5 49.9409 49.5 48.2143C49.5 47.8592 49.1947 47.5714 48.8571 47.5714C48.4416 47.5714 48.2561 47.8624 48.2143 48.2143C47.8149 49.1586 46.8268 49.7302 45 49.8214C43.1732 49.7302 42.1851 49.1586 41.7857 48.2143C41.7439 47.8624 41.5584 47.5714 41.1429 47.5714C40.8053 47.5714 40.5 47.8592 40.5 48.2143Z" fill="black" fill-opacity="0.6"/>
<path d="M36.6429 37.9286C37.708 37.9286 38.5715 37.0651 38.5715 36C38.5715 34.9349 37.708 34.0714 36.6429 34.0714C35.5778 34.0714 34.7144 34.9349 34.7144 36C34.7144 37.0651 35.5778 37.9286 36.6429 37.9286Z" fill="black" fill-opacity="0.6"/>
<path d="M53.3573 37.9286C54.4224 37.9286 55.2859 37.0651 55.2859 36C55.2859 34.9349 54.4224 34.0714 53.3573 34.0714C52.2922 34.0714 51.4287 34.9349 51.4287 36C51.4287 37.0651 52.2922 37.9286 53.3573 37.9286Z" fill="black" fill-opacity="0.6"/>
<path d="M32.0241 31.8724C33.2825 30.1017 36.7323 29.1088 39.7039 29.8386C40.0487 29.9233 40.3969 29.7124 40.4815 29.3676C40.5662 29.0228 40.3553 28.6747 40.0105 28.59C36.5595 27.7425 32.5647 28.8923 30.9761 31.1276C30.7704 31.417 30.8383 31.8183 31.1277 32.024C31.4171 32.2297 31.8184 32.1618 32.0241 31.8724Z" fill="black" fill-opacity="0.6"/>
<path d="M57.9762 31.8724C56.7178 30.1017 53.268 29.1088 50.2963 29.8386C49.9515 29.9233 49.6034 29.7124 49.5187 29.3676C49.434 29.0228 49.6449 28.6747 49.9897 28.59C53.4408 27.7425 57.4356 28.8923 59.0242 31.1276C59.2298 31.417 59.162 31.8183 58.8726 32.024C58.5832 32.2297 58.1818 32.1618 57.9762 31.8724Z" fill="black" fill-opacity="0.6"/>
<path fill-rule="evenodd" clip-rule="evenodd" d="M50.9234 54.697C50.1155 55.4344 49.2548 55.766 48.167 55.5341C47.9798 55.4943 47.2167 54.0754 45.3214 54.0754C43.4261 54.0754 42.663 55.4943 42.4757 55.5341C41.3879 55.766 40.5273 55.4344 39.7193 54.697C38.2006 53.3107 36.9375 51.3991 37.6964 49.3133C38.092 48.2262 38.7353 47.0326 39.9056 46.6862C41.1552 46.3164 42.9097 46.6855 44.169 46.433C44.577 46.3511 45.0227 46.2056 45.3214 45.9643C45.62 46.2056 46.0658 46.3511 46.4736 46.433C47.733 46.6855 49.4875 46.3164 50.7372 46.6862C51.9075 47.0326 52.5508 48.2262 52.9464 49.3133C53.7054 51.3991 52.4423 53.3107 50.9234 54.697ZM63.3475 31.5C62.2513 34.2001 62.6746 37.5615 62.4718 40.3958C62.307 42.6996 61.8226 46.1526 59.777 47.6404C58.7309 48.4012 56.8268 49.68 55.4599 49.3233C54.519 49.0778 54.4186 46.379 53.1821 45.3687C51.7795 44.2229 50.0281 43.7194 48.2622 43.7972C47.5002 43.8307 45.9592 43.8228 45.3214 44.4087C44.6836 43.8228 43.1427 43.8307 42.3807 43.7972C40.6147 43.7194 38.8633 44.2229 37.4608 45.3687C36.2243 46.379 36.124 49.0778 35.183 49.3233C33.8162 49.68 31.912 48.4012 30.8658 47.6404C28.8201 46.1526 28.3359 42.6996 28.1709 40.3958C27.9682 37.5615 28.3915 34.2001 27.2953 31.5C26.7621 31.5 27.1138 36.6843 27.1138 36.6843V43.2274C27.124 48.1414 30.1934 55.4964 36.999 58.3049C38.6634 58.9917 42.4335 60.1071 45.3214 60.1071C48.2093 60.1071 51.9794 59.0979 53.6438 58.4111C60.4494 55.6026 63.5188 48.1414 63.5291 43.2274V36.6843C63.5291 36.6843 63.8807 31.5 63.3475 31.5Z" fill="#98908A"/>
<path fill-rule="evenodd" clip-rule="evenodd" d="M26.6787 31.5C26.7902 31.9784 27.2164 31.893 27.3216 31.5C27.1728 31.0004 28.381 22.2583 31.5001 19.9286C32.6631 19.1197 38.8956 18.396 45.1006 18.4004C51.2386 18.4047 57.3497 19.1284 58.5001 19.9286C61.6193 22.2583 62.8275 31.0004 62.6787 31.5C62.7839 31.893 63.2101 31.9784 63.3216 31.5C63.5527 28.1899 63.3216 11.0168 45.0001 11.25C26.6787 11.4832 26.4476 28.1899 26.6787 31.5Z" fill="#98908A"/>
<path fill-rule="evenodd" clip-rule="evenodd" d="M50.921 30.5459L58.4074 30.6925L58.6348 30.702C60.0163 30.7706 61.0208 31.0374 61.7977 32.1446L62.1228 32.1625C62.9954 32.2147 63.9052 32.31 64.6849 32.6698C65.7728 33.1719 65.941 34.3089 64.5695 34.4655C63.9518 34.5361 63.3334 34.4194 62.7251 34.3109L62.616 34.2936C62.9708 37.3346 60.6209 41.0013 58.0429 42.1191C54.5145 43.6489 50.5729 41.9558 48.7074 38.894C47.8633 37.5086 47.3759 35.5141 47.2719 33.7959C47.0086 33.6682 46.7575 33.4993 46.5169 33.3821C45.8718 33.0677 44.8011 33.0289 44.1042 33.3821C43.8647 33.5034 43.613 33.6735 43.3483 33.8012C43.2438 35.5181 42.7565 37.5105 41.913 38.8947C40.0476 41.9567 36.106 43.6497 32.5776 42.1198C29.9993 41.0021 27.6491 37.3348 28.0045 34.2936L27.896 34.3109L27.6146 34.3609C27.0975 34.4509 26.5743 34.5253 26.0516 34.4655C24.6801 34.3089 24.8483 33.1719 25.9362 32.6698C26.8133 32.265 27.855 32.1951 28.8234 32.1449C29.6001 31.0381 30.6045 30.7714 31.9857 30.7029L32.213 30.6934L39.9753 30.5402C41.5258 30.511 42.8467 30.6256 43.2456 32.0271C43.9169 31.7654 44.6938 31.6236 45.2867 31.6236C45.8841 31.6236 46.6845 31.7677 47.3731 32.0333C47.7928 30.5425 49.2507 30.501 50.921 30.5459ZM40.0756 32.877L39.5919 32.8702C38.0105 32.8555 31.5059 32.8349 30.7338 33.4765C29.9657 34.1147 30.3861 36.0235 30.5861 36.8216C30.9281 38.1857 31.7057 39.5551 32.8412 40.4205C33.8018 41.1525 35.0317 41.2032 36.1925 41.0912L36.2617 41.0835C36.1851 41.0873 36.7328 41.0105 36.8451 40.9893L36.8555 40.9872C37.199 40.9134 37.5425 40.8161 37.8678 40.6813C38.4804 40.4276 39.0564 40.0561 39.5286 39.5899C40.4251 38.7047 40.8102 37.5181 41.0418 36.3069C41.1935 35.5137 41.3215 34.6084 41.1899 33.8031C41.0681 33.0578 40.7438 32.8998 40.0756 32.877ZM51.5069 32.866L50.6831 32.8733C49.9208 32.8806 49.5605 33.0073 49.4306 33.8023C49.299 34.6075 49.427 35.5129 49.5786 36.3061C49.8103 37.5172 50.1954 38.7038 51.0918 39.589C51.5641 40.0552 52.14 40.4268 52.7527 40.6806C53.0238 40.7928 53.3075 40.8791 53.5933 40.9475L53.765 40.9864C53.8436 41.0033 54.3868 41.0795 54.3655 41.0828L54.3169 41.0792C55.51 41.2049 56.788 41.1751 57.7792 40.4196C58.9148 39.5542 59.6924 38.1849 60.0344 36.8209L60.0948 36.5712C60.3023 35.6786 60.5832 34.0546 59.8867 33.4757C59.1774 32.8863 53.6309 32.8557 51.5069 32.866Z" fill="black" fill-opacity="0.16"/>
<path fill-rule="evenodd" clip-rule="evenodd" d="M40.1821 31.9106C40.9891 31.9183 41.3707 32.0549 41.5081 32.9117C41.6475 33.7796 41.512 34.7553 41.3514 35.6101C41.1062 36.9154 40.6985 38.1942 39.7494 39.1482C39.2495 39.6506 38.6397 40.0511 37.9911 40.3245C37.6467 40.4698 37.283 40.5746 36.9194 40.6542C36.8131 40.6774 35.9057 40.8047 36.4622 40.74C35.1634 40.8909 33.7543 40.8849 32.6696 40.0434C31.4674 39.1107 30.6441 37.6349 30.2821 36.1648C30.0703 35.3047 29.6253 33.2475 30.4384 32.5597C31.3699 31.7718 40.1821 31.9106 40.1821 31.9106Z" fill="#150662" fill-opacity="0.7"/>
<path fill-rule="evenodd" clip-rule="evenodd" d="M50.4385 31.9097C49.6314 31.9176 49.2499 32.0541 49.1124 32.9109C48.9731 33.7787 49.1086 34.7545 49.2691 35.6093C49.5143 36.9146 49.9221 38.1934 50.8711 39.1474C51.3711 39.6498 51.9809 40.0503 52.6294 40.3238C52.9738 40.469 53.3375 40.5738 53.7011 40.6534C53.8074 40.6766 54.7148 40.8039 54.1583 40.7392C55.4571 40.8901 56.8662 40.8841 57.951 40.0425C59.1532 39.1099 59.9764 37.6342 60.3384 36.1641C60.5502 35.3039 60.9952 33.2468 60.1821 32.5589C59.2506 31.7709 50.4385 31.9097 50.4385 31.9097Z" fill="#150662" fill-opacity="0.7"/>
<path fill-rule="evenodd" clip-rule="evenodd" d="M39.9373 32.2313C40.6996 32.2385 41.06 32.3652 41.1899 33.1602C41.3215 33.9655 41.1935 34.8709 41.0418 35.6641C40.8102 36.8752 40.4251 38.0618 39.5286 38.947C39.0564 39.4132 38.4804 39.7848 37.8678 40.0385C37.5425 40.1733 37.1989 40.2706 36.8555 40.3444C36.7551 40.3659 35.898 40.484 36.4237 40.424C35.1968 40.564 33.8658 40.5585 32.8412 39.7776C31.7057 38.9122 30.928 37.5428 30.5861 36.1788C30.386 35.3807 29.9657 33.4718 30.7338 32.8337C31.6136 32.1025 39.9373 32.2313 39.9373 32.2313ZM32.213 30.0505C30.4643 30.1107 29.2972 30.418 28.4347 32.1651C26.8541 35.3668 29.5596 40.1686 32.5776 41.477C36.1059 43.0069 40.0476 41.3138 41.913 38.2519C42.9008 36.6307 43.4002 34.1753 43.368 32.3048C43.3271 29.9175 41.6595 29.8512 39.6994 29.9037L32.213 30.0505Z" fill="#252C2F"/>
<path fill-rule="evenodd" clip-rule="evenodd" d="M50.683 32.2305C49.9207 32.2378 49.5603 32.3644 49.4305 33.1594C49.2989 33.9647 49.4268 34.87 49.5784 35.6632C49.8101 36.8744 50.1952 38.061 51.0917 38.9462C51.5639 39.4124 52.1399 39.7839 52.7525 40.0378C53.0778 40.1724 53.4214 40.2697 53.7648 40.3435C53.8652 40.3651 54.7223 40.4833 54.1967 40.4231C55.4235 40.5632 56.7545 40.5576 57.7791 39.7768C58.9146 38.9114 59.6923 37.5421 60.0342 36.178C60.2343 35.3798 60.6545 33.4711 59.8865 32.8328C59.0067 32.1017 50.683 32.2305 50.683 32.2305ZM58.4073 30.0497C60.156 30.1099 61.3231 30.4173 62.1856 32.1643C63.7661 35.366 61.0608 40.1677 58.0427 41.4763C54.5144 43.006 50.5727 41.313 48.7073 38.2511C47.7195 36.6299 47.2201 34.1745 47.2522 32.304C47.2932 29.9166 48.9608 29.8504 50.9209 29.903L58.4073 30.0497Z" fill="#252C2F"/>
<path fill-rule="evenodd" clip-rule="evenodd" d="M29.3134 31.4764C28.2167 31.5381 26.9635 31.5528 25.9362 32.0269C24.8483 32.529 24.6801 33.666 26.0516 33.8227C26.6693 33.8933 27.2878 33.7766 27.896 33.6681C28.3941 33.5791 29.0707 33.6079 29.5415 33.4176C30.4187 33.0629 30.3624 31.4164 29.3134 31.4764Z" fill="#252C2F"/>
<path fill-rule="evenodd" clip-rule="evenodd" d="M61.3076 31.4764C62.4043 31.5381 63.6575 31.5528 64.6848 32.0269C65.7727 32.529 65.9409 33.666 64.5694 33.8227C63.9517 33.8933 63.3333 33.7766 62.725 33.6681C62.2269 33.5791 61.5503 33.6079 61.0795 33.4176C60.2022 33.0629 60.2587 31.4164 61.3076 31.4764Z" fill="#252C2F"/>
<path fill-rule="evenodd" clip-rule="evenodd" d="M48.5711 32.1469C47.9455 31.4076 46.3152 30.9808 45.2867 30.9808C44.2581 30.9808 42.6756 31.4076 42.0502 32.1469C41.7347 32.5197 41.724 33.0184 42.2707 33.2521C42.9515 33.5432 43.5594 33.0153 44.1043 32.7392C44.8012 32.3861 45.8719 32.4249 46.517 32.7392C47.0661 33.0069 47.6697 33.5432 48.3505 33.2521C48.8972 33.0184 48.8865 32.5197 48.5711 32.1469Z" fill="#252C2F"/>
</g>
</svg>
