<svg width="90" height="90" viewBox="0 0 90 90" fill="none" xmlns="http://www.w3.org/2000/svg">
<path d="M45 90C69.8528 90 90 69.8528 90 45C90 20.1472 69.8528 0 45 0C20.1472 0 0 20.1472 0 45C0 69.8528 20.1472 90 45 90Z" fill="#B9EEE9"/>
<mask id="mask0_211_106" style="mask-type:luminance" maskUnits="userSpaceOnUse" x="0" y="0" width="90" height="90">
<path d="M45 90C69.8528 90 90 69.8528 90 45C90 20.1472 69.8528 0 45 0C20.1472 0 0 20.1472 0 45C0 69.8528 20.1472 90 45 90Z" fill="white"/>
</mask>
<g mask="url(#mask0_211_106)">
<path fill-rule="evenodd" clip-rule="evenodd" d="M45 11.5714C54.9412 11.5714 63 19.6303 63 29.5714L63.0003 31.5534C64.8244 31.8595 66.2143 33.446 66.2143 35.3571V39.8571C66.2143 41.8026 64.7741 43.4116 62.9017 43.6761C62.2376 50.0421 58.2551 55.4213 52.7146 58.0534L52.7143 63.9643H54C66.7815 63.9643 77.1429 74.3257 77.1429 87.1071V90H12.8572V87.1071C12.8572 74.3257 23.2186 63.9643 36 63.9643H37.2857L37.2857 58.0535C31.7451 55.4215 27.7625 50.0422 27.0981 43.676C25.226 43.4116 23.7857 41.8026 23.7857 39.8571V35.3571C23.7857 33.4459 25.1758 31.8593 27.0001 31.5533L27 29.5714C27 19.6303 35.0589 11.5714 45 11.5714Z" fill="#EAC7A8"/>
<path fill-rule="evenodd" clip-rule="evenodd" d="M37.2852 58.0532C39.6234 59.1641 42.2391 59.7857 45 59.7857C47.7607 59.7857 50.3762 59.1642 52.7143 58.0535L52.7144 59.7683C50.6063 61.1995 48.0615 62.0357 45.3214 62.0357C42.2965 62.0357 39.5096 61.0165 37.2853 59.3029L37.2852 58.0532Z" fill="black" fill-opacity="0.24"/>
<path fill-rule="evenodd" clip-rule="evenodd" d="M42.4287 41.4643C42.4287 43.2395 43.7296 44.0357 45.0001 44.0357C46.2707 44.0357 47.5716 43.2395 47.5716 41.4643C46.875 41.6995 46.0096 41.8171 44.9756 41.8171C43.9525 41.8171 43.1035 41.6995 42.4287 41.4643Z" fill="black" fill-opacity="0.16"/>
<path fill-rule="evenodd" clip-rule="evenodd" d="M77.1429 87.1238V90H12.8572V87.1238C12.8572 75.5802 21.3088 66.0106 32.3617 64.2653C32.6522 65.8951 33.4663 67.4436 34.7902 68.6375L44.139 77.0682C44.6282 77.5094 45.3718 77.5094 45.8611 77.0682L55.2098 68.6375C55.3466 68.5142 55.479 68.3859 55.6066 68.2531C56.7044 67.1104 57.3804 65.7172 57.6384 64.266C68.6915 66.0108 77.1429 75.5803 77.1429 87.1238Z" fill="#FF4C77"/>
<path d="M40.5 48.2143C40.5 49.9409 42.4794 51.1071 45 51.1071C47.5206 51.1071 49.5 49.9409 49.5 48.2143C49.5 47.8592 49.1947 47.5714 48.8571 47.5714C48.4416 47.5714 48.2561 47.8624 48.2143 48.2143C47.8149 49.1586 46.8268 49.7302 45 49.8214C43.1732 49.7302 42.1851 49.1586 41.7857 48.2143C41.7439 47.8624 41.5584 47.5714 41.1429 47.5714C40.8053 47.5714 40.5 47.8592 40.5 48.2143Z" fill="black" fill-opacity="0.6"/>
<path fill-rule="evenodd" clip-rule="evenodd" d="M35.6778 34.0714C36.8043 34.0714 37.8935 34.4939 38.5771 35.2101C38.8171 35.4269 39.0026 35.7031 39.11 36.0157C39.126 36.0534 39.141 36.0919 39.1549 36.1309C39.1851 36.2153 39.1972 36.2958 39.1949 36.3671C39.2076 36.457 39.2143 36.5491 39.2143 36.6429C39.2143 37.708 38.3508 38.5714 37.2857 38.5714C36.2206 38.5714 35.3571 37.708 35.3571 36.6429C35.3571 36.2009 35.5058 35.7936 35.7559 35.4683C35.73 35.4678 35.7039 35.4676 35.6778 35.4676C34.4755 35.4676 33.388 35.8646 32.6049 36.5052C32.3186 36.7394 32.0207 36.5009 32.1943 36.1438C32.7878 34.9227 34.1242 34.0714 35.6778 34.0714Z" fill="black" fill-opacity="0.6"/>
<path fill-rule="evenodd" clip-rule="evenodd" d="M54.3206 34.0714C55.4471 34.0714 56.5363 34.4939 57.2199 35.2101C57.4599 35.4269 57.6454 35.7031 57.7528 36.0157C57.7689 36.0534 57.7838 36.0919 57.7977 36.1309C57.8279 36.2153 57.8401 36.2958 57.8377 36.3671C57.8504 36.457 57.8571 36.5491 57.8571 36.6429C57.8571 37.708 56.9936 38.5714 55.9285 38.5714C54.8634 38.5714 53.9999 37.708 53.9999 36.6429C53.9999 36.2009 54.1486 35.7936 54.3987 35.4683C54.3728 35.4678 54.3467 35.4676 54.3206 35.4676C53.1183 35.4676 52.0308 35.8646 51.2477 36.5052C50.9614 36.7394 50.6635 36.5009 50.8371 36.1438C51.4306 34.9227 52.7671 34.0714 54.3206 34.0714Z" fill="black" fill-opacity="0.6"/>
<path d="M32.0241 31.8724C33.2825 30.1017 36.7323 29.1088 39.7039 29.8386C40.0487 29.9233 40.3969 29.7124 40.4815 29.3676C40.5662 29.0228 40.3553 28.6746 40.0105 28.59C36.5595 27.7425 32.5647 28.8922 30.9761 31.1276C30.7704 31.417 30.8383 31.8183 31.1277 32.024C31.4171 32.2297 31.8184 32.1618 32.0241 31.8724Z" fill="black" fill-opacity="0.6"/>
<path d="M57.9762 31.8724C56.7178 30.1017 53.268 29.1088 50.2963 29.8386C49.9515 29.9233 49.6034 29.7124 49.5187 29.3676C49.434 29.0228 49.6449 28.6746 49.9897 28.59C53.4408 27.7425 57.4356 28.8922 59.0242 31.1276C59.2298 31.417 59.162 31.8183 58.8726 32.024C58.5832 32.2297 58.1818 32.1618 57.9762 31.8724Z" fill="black" fill-opacity="0.6"/>
<path fill-rule="evenodd" clip-rule="evenodd" d="M31.1786 9C37.5765 4.25583 48.3564 2.88697 52.0866 8.52499C54.8668 7.29018 58.9881 8.41549 62.0357 11.25C65.1104 14.2764 67.5645 20.9571 66.1039 26.4235C66.1379 26.83 66.155 27.241 66.155 27.656L66.155 34.6794C65.8716 33.0809 64.6037 31.8225 63.0003 31.5534L63 31.5C61.0597 24.5772 55.3586 21.4002 51.8873 18.249C46.4587 24.3235 29.5146 24.3446 23.7857 36.3214V39.5357C23.7857 41.4703 25.21 43.0723 27.0672 43.3502C27.6274 49.8583 31.6509 55.3767 37.2857 58.0535L37.2857 58.1786C38.2277 72.2749 35.151 89.9349 15.1072 84.5357C19.4922 81.9695 21.8079 65.5011 21.8576 55.378L21.8572 27.0149C21.8572 25.8807 21.9849 24.7763 22.2267 23.7154C23.2075 17.2726 26.9271 12.154 31.1786 9ZM66.155 40.2134L66.155 40.6512C66.155 45.7388 67.3627 50.7538 69.6787 55.2837L78.3407 72.2254C80.579 76.6031 79.9217 81.6992 77.0751 85.3299C76.168 73.3788 66.1834 63.9643 54 63.9643L52.7143 63.964L52.7146 58.0534C58.3494 55.3765 62.3727 49.8582 62.933 43.3502C64.5681 43.1055 65.8677 41.8343 66.155 40.2134Z" fill="#2C1B18"/>
<path fill-rule="evenodd" clip-rule="evenodd" d="M51.8872 18.249C55.3585 21.4002 61.0596 24.5772 62.9999 31.5L62.9868 31.454C61.0342 25.4776 55.3516 23.3667 51.888 20.6384C46.4577 25.9094 29.5144 25.9279 23.7856 36.3214C29.4528 24.4737 46.0947 24.3254 51.7089 18.4436L51.8872 18.249Z" fill="black" fill-opacity="0.16"/>
</g>
</svg>
