<svg width="24" height="24" viewBox="0 0 24 24" fill="none" xmlns="http://www.w3.org/2000/svg">
<path d="M4.28847 15.1091C3.04948 14.5606 2.02878 13.548 1.59255 11.989L4.28847 15.1091ZM4.28847 15.1091C3.96921 15.4001 3.70967 15.7288 3.51998 16.0968C2.75214 17.5867 3.36112 19.1856 4.61705 20.4744L5.28095 19.8274L4.61706 20.4744C5.75446 21.6415 6.86551 22.2937 7.96685 22.4068C9.1083 22.524 10.0235 22.0425 10.6935 21.4118C11.2554 20.8829 11.6823 20.2187 12.0001 19.6077M4.28847 15.1091L12.0001 19.6077M12.0001 19.6077C12.3178 20.2187 12.7448 20.8829 13.3067 21.4118C13.9767 22.0424 14.8919 22.5239 16.0333 22.4067C17.1346 22.2937 18.2456 21.6414 19.3829 20.4744C20.6389 19.1856 21.2478 17.5867 20.48 16.0969C20.2903 15.7288 20.0307 15.4001 19.7114 15.1091C20.9504 14.5606 21.9712 13.548 22.4075 11.989M12.0001 19.6077L6.93566 4.20034M22.4075 11.989C22.4075 11.989 22.4074 11.989 22.4074 11.989L21.4445 11.7195L22.4075 11.989ZM22.4075 11.989C22.4846 11.7132 22.5524 11.2061 22.6113 10.6938C22.6745 10.1446 22.7384 9.48178 22.7955 8.82801C22.9074 7.545 23 6.2135 23 5.85503C23 4.96643 22.8082 4.17669 22.3117 3.60255C21.7904 2.99962 21.0843 2.80528 20.4377 2.81506C19.2389 2.83318 17.9433 3.54058 17.0645 4.20031C15.815 5.13828 14.5616 6.52062 13.5194 7.87606C12.9536 8.61198 12.4348 9.35997 12.0001 10.0524M12.0001 10.0524C11.5654 9.35994 11.0466 8.61193 10.4807 7.87601C9.43853 6.52059 8.18506 5.13831 6.93566 4.20034M12.0001 10.0524C12.2141 10.3933 12.4077 10.7207 12.5765 11.0265L6.93566 4.20034M12.0001 10.0524C11.7861 10.3933 11.5925 10.7206 11.4237 11.0265C10.2754 9.09497 8.24517 6.43388 6.33526 5.00004M6.93566 4.20034L6.33526 5.00004M6.33526 5.00004L6.93564 4.20032M6.33526 5.00004L6.93564 4.20032M6.93564 4.20032C6.05686 3.54056 4.76118 2.83318 3.56235 2.81506C2.91573 2.80528 2.20967 2.99961 1.68832 3.60252C1.19184 4.17667 1 4.96642 1 5.85503C1 6.21347 1.09263 7.54495 1.20454 8.82796M6.93564 4.20032L1.20454 8.82796M1.20454 8.82796C1.26156 9.48173 1.32548 10.1446 1.38865 10.6937M1.20454 8.82796L1.38865 10.6937M1.38865 10.6937C1.44758 11.2061 1.51535 11.7131 1.59253 11.9889L1.38865 10.6937ZM12.1071 14.8379C12.0965 14.8403 12.0858 14.8426 12.075 14.8448C12.0856 14.6733 12.095 14.5171 12.1029 14.3869C12.1089 14.2872 12.114 14.2027 12.118 14.1382L12.1238 14.1262C12.1198 14.2719 12.1134 14.5297 12.1071 14.8379Z" fill="black" stroke="black" stroke-width="2"/>
<path d="M6.33526 5C8.62822 6.7214 11.0945 10.2117 12.0001 12.0848C12.9056 10.2118 15.3718 6.72137 17.6649 5C19.3193 3.7579 22 2.79684 22 5.855C22 6.46575 21.6498 10.9857 21.4445 11.7194C20.7306 14.2706 18.1292 14.9213 15.8152 14.5275C19.86 15.2159 20.8889 17.4961 18.6668 19.7764C14.4465 24.1071 12.601 18.6898 12.1278 17.3017C12.0412 17.0473 12.0006 16.9282 12 17.0294C11.9994 16.9282 11.9588 17.0473 11.8721 17.3017C11.3993 18.6898 9.55378 24.1072 5.33322 19.7764C3.11103 17.4961 4.13995 15.2157 8.18483 14.5275C5.87077 14.9213 3.26934 14.2706 2.55555 11.7194C2.35016 10.9856 2 6.46568 2 5.855C2 2.79684 4.68086 3.7579 6.33526 5Z" fill="white"/>
</svg>
