<?xml version="1.0" encoding="UTF-8"?>
<svg id="Layer_1" data-name="Layer 1" xmlns="http://www.w3.org/2000/svg" viewBox="0 0 192.96 141.19">
  <defs>
    <style>
      .cls-1, .cls-2, .cls-3, .cls-4, .cls-5, .cls-6, .cls-7, .cls-8 {
        stroke-width: 0px;
      }

      .cls-2 {
        fill: #7a853b;
      }

      .cls-3 {
        fill: #35647e;
      }

      .cls-4 {
        fill: #245d38;
      }

      .cls-5 {
        fill: #c3002f;
      }

      .cls-6 {
        fill: #6d3a5d;
      }

      .cls-7 {
        fill: #ffd100;
      }

      .cls-8 {
        fill: #001970;
      }
    </style>
  </defs>
  <g>
    <path class="cls-1" d="m9.75,126.04c1.3,0,2.61.48,3.59,1.36.19.19.48.19.67,0l2.08-2.16c.21-.21.21-.53-.03-.75-1.81-1.64-3.78-2.47-6.45-2.47-5.33,0-9.62,4.29-9.62,9.62s4.29,9.56,9.62,9.56c2.37,0,4.66-.82,6.47-2.58.19-.19.21-.53.02-.72l-2.08-2.21c-.16-.18-.51-.18-.69-.02-.96.83-2.32,1.28-3.57,1.28-3.01,0-5.25-2.45-5.25-5.41s2.21-5.49,5.22-5.49"/>
    <path class="cls-1" d="m33.32,122.01c-5.33,0-9.56,4.29-9.56,9.62s4.23,9.56,9.56,9.56,9.59-4.23,9.59-9.56-4.26-9.62-9.59-9.62m0,14.92c-2.9,0-5.3-2.4-5.3-5.31s2.4-5.35,5.3-5.35,5.33,2.42,5.33,5.35-2.39,5.31-5.33,5.31"/>
    <path class="cls-1" d="m62.41,137.01h-6.43v-14.23c0-.27-.24-.51-.5-.51h-3.17c-.29,0-.51.23-.51.51v17.63c0,.26.21.51.51.51h10.11c.29,0,.51-.24.51-.51v-2.9c0-.27-.21-.51-.51-.51"/>
    <path class="cls-1" d="m79.82,122.01c-5.33,0-9.56,4.29-9.56,9.62s4.23,9.56,9.56,9.56,9.59-4.23,9.59-9.56-4.26-9.62-9.59-9.62m0,14.92c-2.91,0-5.3-2.4-5.3-5.31s2.4-5.35,5.3-5.35,5.33,2.42,5.33,5.35-2.4,5.31-5.33,5.31"/>
    <path class="cls-1" d="m109.18,133.39c2.32-.94,3.94-2.91,3.94-5.36,0-3.17-2.61-5.75-5.8-5.75h-7.97c-.3,0-.51.23-.51.51v17.64c0,.26.21.51.51.51h3.17c.26,0,.51-.24.51-.51v-6.79h1.84l3.81,7.06c.05.11.22.24.43.24h3.54c.45,0,.64-.42.45-.77l-3.91-6.77Zm-2.21-3.15h-3.94v-4.16h3.94c1.09,0,2.03.9,2.03,2.02s-.93,2.13-2.03,2.13"/>
    <path class="cls-1" d="m156.11,122.28h-6.5c-.26,0-.48.23-.48.51v17.63c0,.27.22.51.48.51h6.5c5.14,0,9.35-4.18,9.35-9.35s-4.21-9.29-9.35-9.29m-.27,14.7h-2.56v-10.79h2.56c3.01,0,5.2,2.37,5.2,5.38s-2.19,5.41-5.2,5.41"/>
    <path class="cls-1" d="m183.37,122.01c-5.33,0-9.57,4.29-9.57,9.62s4.24,9.56,9.57,9.56,9.59-4.23,9.59-9.56-4.26-9.62-9.59-9.62m0,14.92c-2.91,0-5.3-2.4-5.3-5.31s2.4-5.35,5.3-5.35,5.32,2.42,5.32,5.35-2.4,5.31-5.32,5.31"/>
    <path class="cls-1" d="m131.52,122.31c-.08-.16-.26-.3-.45-.3h-.27c-.19,0-.38.13-.46.3l-8.34,17.92c-.16.35.05.69.45.69h2.93c.53,0,.77-.16.96-.64l.96-2.13h7.26l.96,2.1c.27.58.38.67.93.67h2.96c.4,0,.62-.34.45-.69l-8.34-17.92Zm-3.02,12.69l2.42-5.58,2.45,5.58h-4.87Z"/>
  </g>
  <g>
    <g>
      <path class="cls-4" d="m69.93,80.63c-1.52-1.89-2.9-3.89-4.14-6-.07-.1-.16-.22-.23-.32-.9-1.66-1.77-3.34-2.52-5.07-.22-.52-.44-1.04-.64-1.57-2.59-6.64-3.7-13.5-3.36-20.62.41-7.75,2.56-15.02,6.39-21.76.03-.1.06-.22.12-.32,1.06-1.71,2.14-3.38,3.35-4.98-.55-1-1.14-2.04-1.78-3.19-3.92-6.98-5.89-10.34-9.84-16.81-3.94,6.59-5.92,10.01-9.84,17.09-3.93,6.85-5.88,10.41-9.73,17.76,3.17-.83,4.78-1.15,8-1.64-.82,2.01-1.23,3.02-2.05,5.06-4.66,9.25-9.1,18.66-13.28,28.14,3.28-1.21,4.94-1.72,8.31-2.55-4.21,10.2-8.29,20.42-12.25,30.72,21.66-7.47,39.36-7.57,61.07-.19-4.46-2.08-8.64-4.87-12.52-8.38-1.84-1.67-3.51-3.47-5.06-5.39Z"/>
      <path class="cls-7" d="m108.68,25.67c-7.19,0-13.94,3.17-18.53,8.68l-.12.14c-3.52,4.27-5.47,9.72-5.47,15.31,0,.24,0,.45.01.67l14.62-12.75,9.98,8.71,9.98-8.71,13.66,11.92c-.02-3.18-.64-6.25-1.85-9.13-3.75-9.02-12.49-14.85-22.26-14.85Z"/>
      <path class="cls-5" d="m65.44,25.29c-3.83,6.74-5.99,14.01-6.39,21.76-.35,7.12.76,13.98,3.36,20.62.2.53.42,1.05.64,1.57l18.91-16.49c-.04-.34-.08-.68-.1-1.02-.05-.59-.07-1.23-.07-1.93,0-6.23,2.18-12.31,6.14-17.11l.13-.14c5.09-6.11,12.62-9.64,20.63-9.64,10.9,0,20.64,6.5,24.82,16.55,0,0,0,0,0,.01,6.67-2.7,13.32-5.39,19.99-8.07.45-.19.58-.32.35-.82-.81-1.9-1.77-3.76-2.75-5.6-.09-.16-.19-.32-.29-.45C141.8,10.04,128.79,2.01,111.81.43c-4.87-.45-9.71,0-14.48,1.13-11.29,2.66-20.56,8.55-27.8,17.62-.21.27-.41.54-.62.81-1.2,1.6-2.28,3.27-3.35,4.98-.06.1-.09.22-.12.32Z"/>
      <path class="cls-2" d="m99.18,37.73l-14.62,12.75c.01.36.03.72.05,1.05.26,3.79,1.44,7.5,3.4,10.74.42.67.76,1.18,1.09,1.64l20.05-17.47-9.98-8.71Z"/>
      <path class="cls-6" d="m85.68,63.77c-2.05-3.39-3.31-7.16-3.73-11.02l-18.91,16.49c.75,1.74,1.62,3.42,2.52,5.07.07.1.16.22.23.32,1.24,2.1,2.62,4.11,4.14,6l.72-.63,16.36-14.27s-.05-.06-.07-.1c-.39-.53-.79-1.13-1.26-1.87Z"/>
      <path class="cls-8" d="m153.24,67.8c-6.54-2.66-13.08-5.28-19.63-7.92,0,0,0,0,0,0-.73,1.82-1.68,3.57-2.82,5.21-5.02,7.27-13.29,11.61-22.12,11.61s-16.61-4.1-21.67-10.97l-16.36,14.27-.72.63c1.55,1.92,3.23,3.72,5.06,5.39,3.88,3.51,8.06,6.29,12.52,8.38,6,2.8,12.52,4.33,19.54,4.56,5.09.19,10.1-.48,15-1.93,9.58-2.82,17.61-8.07,24.09-15.7.43-.51.84-1.02,1.25-1.55,1.33-1.74,2.54-3.57,3.68-5.47.95-1.74,1.87-3.5,2.63-5.34.06-.19.12-.32.16-.42l.06-.16-.06-.25c-.1-.13-.29-.19-.64-.35Z"/>
      <path class="cls-3" d="m109.16,46.44l19.16,16.71.28.24c.98-1.43,1.8-2.96,2.44-4.54,1.17-2.86,1.76-5.9,1.76-9.04,0-.05,0-.1,0-.15l-13.66-11.92-9.98,8.71Z"/>
      <path class="cls-8" d="m109.16,46.44l-20.05,17.47s.04.06.06.09c4.53,6.22,11.82,9.93,19.51,9.93s15.33-3.89,19.84-10.41c.03-.04.06-.09.08-.13l-.28-.24-19.16-16.71Z"/>
    </g>
    <g>
      <path class="cls-1" d="m137.85,93.93h-1.06c-.08,0-.13-.06-.13-.13v-.57c0-.07.06-.13.13-.13h3.03c.08,0,.13.06.13.13v.57c0,.07-.06.13-.13.13h-1.06v3.9c0,.07-.06.13-.13.13h-.64c-.07,0-.13-.06-.13-.13v-3.9Z"/>
      <path class="cls-1" d="m141.79,93.14c0-.06.05-.1.12-.1h.11c.06,0,.1.03.12.07l1.53,3.28h.02l1.53-3.28s.05-.07.12-.07h.11c.08,0,.12.05.12.1l.82,4.66c.02.1-.03.16-.12.16h-.63c-.06,0-.12-.06-.13-.1l-.41-2.63h-.02l-1.21,2.73s-.05.08-.12.08h-.12c-.06,0-.1-.03-.12-.08l-1.23-2.73h-.02l-.4,2.63s-.06.1-.12.1h-.62c-.09,0-.15-.06-.13-.16l.83-4.66Z"/>
    </g>
  </g>
</svg>