<svg width="90" height="90" viewBox="0 0 90 90" fill="none" xmlns="http://www.w3.org/2000/svg">
<path d="M45 90C69.8528 90 90 69.8528 90 45C90 20.1472 69.8528 0 45 0C20.1472 0 0 20.1472 0 45C0 69.8528 20.1472 90 45 90Z" fill="#B9EEE9"/>
<mask id="mask0_213_1209" style="mask-type:luminance" maskUnits="userSpaceOnUse" x="0" y="0" width="90" height="90">
<path d="M45 90C69.8528 90 90 69.8528 90 45C90 20.1472 69.8528 0 45 0C20.1472 0 0 20.1472 0 45C0 69.8528 20.1472 90 45 90Z" fill="white"/>
</mask>
<g mask="url(#mask0_213_1209)">
<path fill-rule="evenodd" clip-rule="evenodd" d="M45 11.5715C54.9412 11.5715 63 19.6303 63 29.5715L63.0003 31.5534C64.8244 31.8596 66.2143 33.4461 66.2143 35.3572V39.8572C66.2143 41.8026 64.7741 43.4116 62.9017 43.6762C62.2376 50.0421 58.2551 55.4213 52.7146 58.0534L52.7143 63.9643H54C66.7815 63.9643 77.1429 74.3257 77.1429 87.1072V90H12.8572V87.1072C12.8572 74.3257 23.2186 63.9643 36 63.9643H37.2857L37.2857 58.0536C31.7451 55.4215 27.7625 50.0422 27.0981 43.6761C25.226 43.4116 23.7857 41.8026 23.7857 39.8572V35.3572C23.7857 33.446 25.1758 31.8594 27.0001 31.5534L27 29.5715C27 19.6303 35.0589 11.5715 45 11.5715Z" fill="#EAC7A8"/>
<path fill-rule="evenodd" clip-rule="evenodd" d="M37.2852 58.0533C39.6234 59.1642 42.2391 59.7857 45 59.7857C47.7607 59.7857 50.3762 59.1643 52.7143 58.0536L52.7144 59.7683C50.6063 61.1995 48.0615 62.0357 45.3214 62.0357C42.2965 62.0357 39.5096 61.0166 37.2853 59.3029L37.2852 58.0533Z" fill="black" fill-opacity="0.24"/>
<path fill-rule="evenodd" clip-rule="evenodd" d="M42.4287 41.4643C42.4287 43.2395 43.7296 44.0357 45.0001 44.0357C46.2707 44.0357 47.5716 43.2395 47.5716 41.4643C46.875 41.6995 46.0096 41.8171 44.9756 41.8171C43.9525 41.8171 43.1035 41.6995 42.4287 41.4643Z" fill="black" fill-opacity="0.16"/>
<path fill-rule="evenodd" clip-rule="evenodd" d="M34.3929 64.3975C34.3929 68.2106 39.2138 71.3018 45.1607 71.3018C51.1077 71.3018 55.9286 68.2106 55.9286 64.3975C55.9286 64.2841 55.9243 64.1713 55.9159 64.0592C67.801 65.033 77.1429 74.9875 77.1429 87.1238V90H12.8572V87.1238C12.8572 74.8775 22.3691 64.8529 34.4079 64.0349C34.3978 64.1555 34.3929 64.2761 34.3929 64.3975Z" fill="#0B4E3A"/>
<mask id="mask1_213_1209" style="mask-type:luminance" maskUnits="userSpaceOnUse" x="12" y="64" width="66" height="26">
<g opacity="0.6">
<path fill-rule="evenodd" clip-rule="evenodd" d="M34.3929 64.3975C34.3929 68.2106 39.2138 71.3018 45.1607 71.3018C51.1077 71.3018 55.9286 68.2106 55.9286 64.3975C55.9286 64.2841 55.9243 64.1713 55.9159 64.0592C67.801 65.033 77.1429 74.9875 77.1429 87.1238V90H12.8572V87.1238C12.8572 74.8775 22.3691 64.8529 34.4079 64.0349C34.3978 64.1555 34.3929 64.2761 34.3929 64.3975Z" fill="white" fill-opacity="0.16"/>
</g>
</mask>
<g mask="url(#mask1_213_1209)">
<g opacity="0.6">
<path d="M45.1607 73.5307C52.1967 73.5307 57.9005 69.6575 57.9005 64.8798C57.9005 60.102 52.1967 56.2288 45.1607 56.2288C38.1247 56.2288 32.4209 60.102 32.4209 64.8798C32.4209 69.6575 38.1247 73.5307 45.1607 73.5307Z" fill="black" fill-opacity="0.16"/>
</g>
</g>
<path d="M40.5 48.2143C40.5 49.941 42.4794 51.1072 45 51.1072C47.5206 51.1072 49.5 49.941 49.5 48.2143C49.5 47.8593 49.1947 47.5715 48.8571 47.5715C48.4416 47.5715 48.2561 47.8624 48.2143 48.2143C47.8149 49.1587 46.8268 49.7303 45 49.8215C43.1732 49.7303 42.1851 49.1587 41.7857 48.2143C41.7439 47.8624 41.5584 47.5715 41.1429 47.5715C40.8053 47.5715 40.5 47.8593 40.5 48.2143Z" fill="black" fill-opacity="0.6"/>
<path d="M36.6429 37.9286C37.708 37.9286 38.5715 37.0652 38.5715 36C38.5715 34.9349 37.708 34.0715 36.6429 34.0715C35.5778 34.0715 34.7144 34.9349 34.7144 36C34.7144 37.0652 35.5778 37.9286 36.6429 37.9286Z" fill="black" fill-opacity="0.6"/>
<path d="M53.3573 37.9286C54.4224 37.9286 55.2859 37.0652 55.2859 36C55.2859 34.9349 54.4224 34.0715 53.3573 34.0715C52.2922 34.0715 51.4287 34.9349 51.4287 36C51.4287 37.0652 52.2922 37.9286 53.3573 37.9286Z" fill="black" fill-opacity="0.6"/>
<path d="M32.0241 31.8725C33.2825 30.1018 36.7323 29.1089 39.7039 29.8386C40.0487 29.9233 40.3969 29.7124 40.4815 29.3676C40.5662 29.0229 40.3553 28.6747 40.0105 28.59C36.5595 27.7425 32.5647 28.8923 30.9761 31.1277C30.7704 31.4171 30.8383 31.8184 31.1277 32.0241C31.4171 32.2297 31.8184 32.1619 32.0241 31.8725Z" fill="black" fill-opacity="0.6"/>
<path d="M57.9762 31.8725C56.7178 30.1018 53.268 29.1089 50.2963 29.8386C49.9515 29.9233 49.6034 29.7124 49.5187 29.3676C49.434 29.0229 49.6449 28.6747 49.9897 28.59C53.4408 27.7425 57.4356 28.8923 59.0242 31.1277C59.2298 31.4171 59.162 31.8184 58.8726 32.0241C58.5832 32.2297 58.1818 32.1619 57.9762 31.8725Z" fill="black" fill-opacity="0.6"/>
<path fill-rule="evenodd" clip-rule="evenodd" d="M32.5453 16.7214C32.5849 16.7039 32.4868 16.6972 32.251 16.7013C32.5375 16.7007 32.6357 16.7074 32.5453 16.7214ZM29.9305 11.6684C29.9359 11.717 29.9298 11.6621 29.9305 11.6684ZM64.5317 22.7461C64.4468 21.68 64.2964 20.6203 64.0436 19.5786C63.8429 18.7507 63.5687 17.9607 63.2444 17.1708C63.0485 16.6935 62.5911 16.0381 62.5373 15.5233C62.4843 15.0162 62.88 14.4544 62.9645 13.864C63.0465 13.2894 63.0325 12.6853 62.9146 12.1159C62.6469 10.8229 61.7594 9.6204 60.3892 9.28334C60.0832 9.20805 59.4365 9.30083 59.2203 9.12267C58.9725 8.91837 58.7999 8.22239 58.5755 7.94322C57.9357 7.14738 56.9379 6.63487 55.8855 6.81355C55.1106 6.94506 55.5556 7.10531 54.9746 6.64924C54.6516 6.39569 54.4102 6.00854 54.0965 5.73406C53.6249 5.32172 53.0839 4.96873 52.5241 4.67905C51.0594 3.92111 49.3889 3.37017 47.7528 3.10163C44.7683 2.61171 41.5829 3.03884 38.69 3.815C37.2505 4.20121 35.8013 4.69134 34.4643 5.33953C33.891 5.61744 33.5601 5.84798 32.9624 5.92076C32.021 6.03541 31.2238 6.02968 30.332 6.4289C27.5882 7.65739 26.3524 10.5075 27.4201 13.2349C27.6348 13.7834 27.9256 14.2651 28.3265 14.7081C28.8153 15.2484 28.9921 15.142 28.5711 15.7633C27.9415 16.6922 27.4108 17.6827 26.9786 18.7113C25.8443 21.4118 25.6545 24.4534 25.7284 27.3335C25.7542 28.3417 25.7975 29.3624 25.9565 30.3609C26.0251 30.7932 26.0444 31.6059 26.3686 31.9266C26.5331 32.0892 26.7674 32.1799 27.0012 32.1152C27.5507 31.9629 27.3618 31.5575 27.3745 31.181C27.4388 29.2899 27.352 27.6169 27.8018 25.7485C28.134 24.3681 28.6877 23.1144 29.4053 21.8801C30.3177 20.3102 31.3026 18.9314 32.5574 17.5872C32.8524 17.271 32.9169 17.137 33.3125 17.1141C33.612 17.0968 34.0502 17.302 34.3415 17.373C34.9836 17.5295 35.6269 17.6842 36.2808 17.7896C37.4829 17.9834 38.6732 17.9964 39.8862 17.9584C42.2732 17.8837 44.6705 17.7163 46.9849 17.1152C48.522 16.716 49.8847 15.9995 51.3569 15.4743C51.3832 15.4649 51.7522 15.202 51.8169 15.2127C51.9072 15.2276 52.4523 15.7996 52.5443 15.8717C53.2597 16.4327 54.0444 16.6682 54.817 17.1027C55.7695 17.6383 54.847 16.8718 55.3724 17.5394C55.5255 17.7338 55.6039 18.0943 55.7268 18.3145C56.1176 19.0161 56.6614 19.6327 57.3117 20.122C57.9401 20.5948 58.8846 20.8231 59.205 21.4384C59.4521 21.9131 59.5354 22.5583 59.7348 23.0651C60.2579 24.3943 60.9487 25.6338 61.6395 26.8857C62.196 27.8946 62.8048 28.7759 62.8666 29.9288C62.8881 30.3301 62.5063 32.7373 63.4364 32.0052C63.5743 31.8967 63.8716 30.6694 63.9327 30.4611C64.1806 29.6149 64.2687 28.7315 64.3809 27.862C64.6042 26.1329 64.6775 24.4877 64.5317 22.7461Z" fill="#2C1B18"/>
<path fill-rule="evenodd" clip-rule="evenodd" d="M54.8133 30.2144H55.768C62.6114 30.2144 65.0425 31.8524 65.2647 32.0695C65.7899 32.0695 66.2144 32.4841 66.2144 32.9971V33.9246C66.2144 34.4193 65.8197 34.8225 65.3206 34.8506L65.1257 34.8555C64.7507 34.8696 63.717 34.9442 63.2639 35.3384C63.3088 35.8181 63.3216 36.31 63.3216 36.8036C63.3216 40.6828 60.0177 43.3929 55.2859 43.3929H54.3994C49.9227 43.3929 47.2501 40.9295 47.2501 36.8036C47.2501 36.3062 47.2631 35.8104 47.3084 35.327L46.8646 35.1518C46.786 35.1207 46.6163 35.0648 46.3811 35.0068C45.7254 34.8451 45.0512 34.7959 44.455 34.9182C44.2363 34.9631 44.0334 35.0305 43.8471 35.1215L43.3386 35.3699C43.3808 35.8397 43.393 36.3208 43.393 36.8036C43.393 40.6828 40.0891 43.3929 35.3573 43.3929H34.4708C29.9942 43.3929 27.3216 40.9295 27.3216 36.8036C27.3216 36.534 27.3254 36.2648 27.3361 35.9979C27.2994 35.987 27.2777 35.9198 27.2777 35.7798C27.2777 34.9998 25.9347 34.8757 25.5073 34.856L25.3784 34.8522C24.8542 34.8522 24.4287 34.4376 24.4287 33.9246V32.9971C24.4287 32.4841 24.8542 32.0695 25.3784 32.0695L25.4158 32.0368C25.7981 31.7273 28.2536 30.2457 34.6712 30.2148L35.8298 30.2144C36.235 30.2144 36.6186 30.2253 36.9819 30.2467C40.9557 30.3823 42.0783 30.9325 43.6663 31.7096L43.8009 31.776L43.8957 31.8081C44.1324 31.8848 44.7 32.047 45.347 32.0676C46.0436 32.0378 46.6394 31.8489 46.8135 31.7885L47.033 31.6834C48.6429 30.9256 50.284 30.4444 53.2163 30.2788C53.7075 30.2364 54.2387 30.2144 54.8133 30.2144ZM36.0558 32.1435L34.8383 32.1429C28.7942 32.1429 28.6129 34.2119 28.6075 36.8767L28.6073 37.1256C28.6073 39.3982 29.6089 42.1072 34.3837 42.1072H35.3573C39.3317 42.1072 42.1073 40.0588 42.1073 37.1256L42.1053 36.5598C42.0781 34.0758 41.6869 32.1827 36.0558 32.1435ZM55.8048 32.1429H54.7669C48.7228 32.1429 48.5415 34.2119 48.536 36.8767L48.5359 37.1256C48.5359 39.3982 49.5385 42.1072 54.3122 42.1072H55.2859C59.2603 42.1072 62.0359 40.0588 62.0359 37.1256L62.0337 36.5501C62.0053 34.0448 61.5997 32.1429 55.8048 32.1429Z" fill="black" fill-opacity="0.16"/>
<path d="M35.8298 29.5715C42.8089 29.5715 43.393 32.8266 43.393 36.1608C43.393 40.04 40.0891 42.75 35.3572 42.75H34.4708C29.9941 42.75 27.3215 40.2866 27.3215 36.1608C27.3215 32.8266 27.9056 29.5715 34.8847 29.5715H35.8298ZM35.8762 31.5H34.8383C28.6072 31.5 28.6072 33.6989 28.6072 36.4827C28.6072 38.7553 29.6089 41.4643 34.3836 41.4643H35.3572C39.3317 41.4643 42.1072 39.4159 42.1072 36.4827L42.1071 36.2338C42.1016 33.569 41.9203 31.5 35.8762 31.5Z" fill="#252C2F"/>
<path d="M55.7585 29.5715C62.7376 29.5715 63.3217 32.8266 63.3217 36.1608C63.3217 40.04 60.0178 42.75 55.286 42.75H54.3995C49.9228 42.75 47.2502 40.2866 47.2502 36.1608C47.2502 32.8266 47.8343 29.5715 54.8134 29.5715H55.7585ZM55.8049 31.5H54.767C48.7229 31.5 48.5416 33.569 48.5361 36.2338L48.536 36.4827C48.536 38.7553 49.5387 41.4643 54.3123 41.4643H55.286C59.2604 41.4643 62.036 39.4159 62.036 36.4827C62.036 33.6989 62.036 31.5 55.8049 31.5Z" fill="#252C2F"/>
<path d="M25.3784 31.4266C25.6006 31.2096 28.0318 29.5715 34.8751 29.5715C40.6131 29.5715 41.8277 30.167 43.6663 31.0667L43.8009 31.1331C43.9287 31.1783 44.5824 31.4003 45.347 31.4248C46.0436 31.3949 46.6394 31.2061 46.8135 31.1456C48.9121 30.125 50.9662 29.5715 55.768 29.5715C62.6114 29.5715 65.0425 31.2096 65.2647 31.4266C65.7899 31.4266 66.2144 31.8412 66.2144 32.3542V33.2818C66.2144 33.7947 65.7899 34.2093 65.2647 34.2093C65.2647 34.2093 63.0464 34.2093 63.0464 35.1369C63.0464 36.0645 62.4157 33.7947 62.4157 33.2818V32.3783C61.2575 31.9351 59.1843 31.1099 55.768 31.1099C51.9618 31.1099 50.0662 31.7848 48.4402 32.455L48.4583 32.4989L48.4575 33.1373L47.7449 34.8569L46.8646 34.5089C46.786 34.4778 46.6163 34.422 46.3811 34.3639C45.7254 34.2022 45.0512 34.153 44.455 34.2754C44.2363 34.3203 44.0334 34.3876 43.8471 34.4786L42.9978 34.8936L42.148 33.2345L42.1857 32.497L42.2117 32.4344C40.8094 31.7809 39.5163 31.1099 34.8751 31.1099C31.459 31.1099 29.3858 31.9348 28.2274 32.378V33.2818C28.2274 33.7947 27.2777 36.0645 27.2777 35.1369C27.2777 34.2093 25.3784 34.2093 25.3784 34.2093C24.8542 34.2093 24.4287 33.7947 24.4287 33.2818V32.3542C24.4287 31.8412 24.8542 31.4266 25.3784 31.4266Z" fill="#252C2F"/>
</g>
</svg>
