<svg width="525" height="209" viewBox="0 0 525 209" fill="none" xmlns="http://www.w3.org/2000/svg">
<path d="M405.701 204.939L406.352 201.893H410.389L409.738 204.939C409.633 205.467 409.498 205.578 408.689 205.654L408.619 206H411.666L411.736 205.654C410.939 205.572 410.846 205.443 410.957 204.922L412.305 198.617C412.416 198.096 412.562 197.967 413.395 197.885L413.465 197.539H410.418L410.342 197.885C411.115 197.961 411.203 198.072 411.092 198.6L410.482 201.453H406.439L407.049 198.6C407.16 198.072 407.312 197.961 408.098 197.885L408.174 197.539H405.121L405.051 197.885C405.859 197.967 405.941 198.096 405.83 198.617L404.488 204.922C404.371 205.443 404.242 205.572 403.398 205.654L403.322 206H406.375L406.445 205.654C405.695 205.578 405.59 205.467 405.701 204.939ZM415.041 198.986C415.445 198.986 415.768 198.664 415.768 198.254C415.768 197.879 415.48 197.592 415.088 197.592C414.689 197.592 414.361 197.914 414.361 198.318C414.361 198.699 414.648 198.986 415.041 198.986ZM415.34 200.141L413.289 200.404L413.213 200.738L413.688 200.814C413.986 200.879 414.039 200.984 413.98 201.254L413.219 204.857C413.037 205.695 413.289 206.094 413.939 206.094C414.42 206.094 415.012 205.859 415.27 205.537L415.346 205.168C415.129 205.355 414.812 205.438 414.619 205.438C414.35 205.438 414.256 205.25 414.326 204.934L415.34 200.141ZM419.154 197.293L417.104 197.539L417.027 197.873L417.508 197.949C417.795 198.014 417.854 198.119 417.801 198.389L416.424 204.857C416.242 205.695 416.5 206.094 417.145 206.094C417.625 206.094 418.223 205.859 418.475 205.537L418.545 205.168C418.334 205.355 418.018 205.438 417.824 205.438C417.555 205.438 417.461 205.25 417.525 204.934L419.154 197.293ZM422.365 197.293L420.314 197.539L420.238 197.873L420.719 197.949C421.006 198.014 421.064 198.119 421.012 198.389L419.635 204.857C419.453 205.695 419.711 206.094 420.355 206.094C420.836 206.094 421.434 205.859 421.686 205.537L421.756 205.168C421.545 205.355 421.229 205.438 421.035 205.438C420.766 205.438 420.672 205.25 420.736 204.934L422.365 197.293ZM429.666 205.654C428.178 205.654 427.17 204.271 427.17 202.385C427.17 199.684 428.664 197.879 430.58 197.879C431.893 197.879 432.637 198.582 432.689 200.07L432.988 200.094L433.322 198.289C432.812 197.838 431.699 197.387 430.369 197.387C427.656 197.387 425.828 199.414 425.822 202.191C425.816 204.658 427.439 206.152 429.561 206.152C430.615 206.152 431.576 205.877 432.08 205.479L432.473 203.656H432.162C431.588 205.027 430.744 205.654 429.666 205.654ZM436.609 197.293L434.559 197.539L434.482 197.873L434.963 197.949C435.256 198.014 435.314 198.119 435.256 198.389L433.639 206H434.758L435.467 202.643C435.725 201.529 436.521 200.732 437.213 200.732C437.816 200.732 438.062 201.195 437.887 201.986L437.277 204.857C437.102 205.695 437.354 206.094 438.004 206.094C438.479 206.094 439.082 205.859 439.334 205.537L439.41 205.168C439.199 205.355 438.877 205.438 438.684 205.438C438.414 205.438 438.32 205.25 438.391 204.934L439.006 202.062C439.27 200.832 438.783 200.094 437.693 200.094C436.832 200.094 436.094 200.627 435.607 201.752L436.609 197.293ZM440.348 204.014C440.348 205.361 441.033 206.117 441.883 206.117C442.686 206.117 443.359 205.602 443.752 204.629C443.746 204.635 443.682 204.951 443.682 204.957C443.506 205.689 443.746 206.094 444.361 206.094C444.842 206.094 445.434 205.859 445.691 205.537L445.768 205.168C445.551 205.355 445.234 205.438 445.041 205.438C444.766 205.438 444.672 205.25 444.742 204.934L445.756 200.211H445.205L444.678 200.744C444.502 200.398 444.08 200.094 443.365 200.094C441.543 200.094 440.348 202.004 440.348 204.014ZM441.514 203.99C441.52 202.467 442.193 200.568 443.506 200.568C444.01 200.568 444.361 200.82 444.443 201.102L443.898 203.645C443.629 204.834 442.996 205.467 442.393 205.467C441.83 205.467 441.508 205.045 441.514 203.99ZM448.967 200.141L446.998 200.404L446.928 200.738L447.402 200.814C447.695 200.879 447.754 200.984 447.695 201.254L446.688 206H447.807L448.604 202.062C449.025 201.453 449.676 201.096 450.35 201.096C450.555 201.096 450.73 201.125 450.824 201.166C450.895 201.078 450.959 200.896 450.959 200.738C450.959 200.375 450.766 200.141 450.414 200.141C449.916 200.141 449.488 200.521 448.633 201.734L448.967 200.141ZM452.828 206.1C453.402 206.1 453.977 205.877 454.258 205.484L454.328 205.121C454.123 205.332 453.777 205.455 453.408 205.455C452.828 205.455 452.541 205.104 452.734 204.195L453.449 200.814L455.061 200.838L455.166 200.328L453.549 200.387L453.848 199.004L452.676 199.197L452.43 200.369L451.516 200.521L451.457 200.838H452.324L451.621 204.184C451.369 205.367 451.85 206.1 452.828 206.1ZM456.496 207.664H457.146L462.408 196.719H461.752L456.496 207.664ZM469.299 206H470.811L470.875 205.678C470.441 205.572 470.225 205.314 469.709 204.025L468.912 202.027C470.184 201.688 471.127 200.926 471.127 199.666C471.127 198.336 470.049 197.539 468.221 197.539H465.32L465.25 197.885C466.053 197.967 466.135 198.061 466.023 198.6L464.67 204.939C464.553 205.473 464.441 205.566 463.598 205.654L463.521 206H466.533L466.604 205.654C465.848 205.578 465.771 205.473 465.889 204.945L466.457 202.244H467.131C467.359 202.244 467.582 202.232 467.805 202.215L469.299 206ZM469.855 199.684C469.855 201.072 468.836 201.775 467.289 201.816L466.545 201.84L467.377 197.943L468.027 197.961C469.199 198.002 469.855 198.623 469.855 199.684ZM473.764 200.141L471.941 200.404L471.877 200.738L472.328 200.809C472.627 200.867 472.715 200.967 472.738 201.248L473.137 206.217C472.41 206.973 471.297 207.975 470.477 208.631V208.695H471.707C472.369 207.875 472.961 207.137 473.518 206.439C473.805 206.088 474.08 205.742 474.332 205.408C476.148 203.047 476.875 201.641 476.875 200.832C476.875 200.387 476.582 200.094 476.172 200.094C475.768 200.094 475.469 200.387 475.469 200.756C475.469 201.113 475.762 201.4 476.137 201.4C476.172 201.4 476.213 201.395 476.248 201.389C475.984 202.373 475.264 203.58 474.08 205.115L473.764 200.141ZM477.32 204.014C477.32 205.361 478.006 206.117 478.855 206.117C479.658 206.117 480.332 205.602 480.725 204.629C480.719 204.635 480.654 204.951 480.654 204.957C480.479 205.689 480.719 206.094 481.334 206.094C481.814 206.094 482.406 205.859 482.664 205.537L482.74 205.168C482.523 205.355 482.207 205.438 482.014 205.438C481.738 205.438 481.645 205.25 481.715 204.934L482.729 200.211H482.178L481.65 200.744C481.475 200.398 481.053 200.094 480.338 200.094C478.516 200.094 477.32 202.004 477.32 204.014ZM478.486 203.99C478.492 202.467 479.166 200.568 480.479 200.568C480.982 200.568 481.334 200.82 481.416 201.102L480.871 203.645C480.602 204.834 479.969 205.467 479.365 205.467C478.803 205.467 478.48 205.045 478.486 203.99ZM485.986 200.141L483.977 200.404L483.9 200.738L484.381 200.814C484.674 200.879 484.732 200.984 484.674 201.254L483.66 206H484.785L485.477 202.725C485.734 201.6 486.502 200.732 487.234 200.732C487.838 200.732 488.084 201.195 487.914 201.986L487.299 204.857C487.129 205.695 487.375 206.094 488.025 206.094C488.5 206.094 489.104 205.859 489.355 205.537L489.432 205.168C489.221 205.355 488.898 205.438 488.705 205.438C488.436 205.438 488.342 205.25 488.412 204.934L489.027 202.062C489.291 200.832 488.799 200.094 487.715 200.094C486.824 200.094 486.104 200.662 485.635 201.752L485.986 200.141ZM495.414 206.152C497.084 206.152 498.396 205.209 498.396 203.604C498.396 202.707 497.945 202.01 496.891 201.301L496.346 200.932C495.484 200.363 495.18 199.877 495.18 199.268C495.18 198.418 495.848 197.885 496.809 197.885C497.91 197.885 498.566 198.564 498.625 199.848H498.93L499.193 198.025C498.748 197.68 497.834 197.387 496.832 197.387C495.15 197.387 494.02 198.289 494.02 199.701C494.02 200.615 494.547 201.307 495.561 201.98L496.1 202.355C496.949 202.918 497.236 203.422 497.236 204.09C497.236 205.086 496.398 205.654 495.438 205.654C494.277 205.654 493.469 204.998 493.416 203.656H493.117L492.812 205.461C493.287 205.836 494.459 206.152 495.414 206.152ZM501.514 198.986C501.918 198.986 502.24 198.664 502.24 198.254C502.24 197.879 501.953 197.592 501.561 197.592C501.162 197.592 500.834 197.914 500.834 198.318C500.834 198.699 501.121 198.986 501.514 198.986ZM501.812 200.141L499.762 200.404L499.686 200.738L500.16 200.814C500.459 200.879 500.512 200.984 500.453 201.254L499.691 204.857C499.51 205.695 499.762 206.094 500.412 206.094C500.893 206.094 501.484 205.859 501.742 205.537L501.818 205.168C501.602 205.355 501.285 205.438 501.092 205.438C500.822 205.438 500.729 205.25 500.799 204.934L501.812 200.141ZM505.088 200.141L503.078 200.404L503.002 200.738L503.482 200.814C503.775 200.879 503.834 200.984 503.775 201.254L502.762 206H503.887L504.578 202.725C504.836 201.6 505.604 200.732 506.336 200.732C506.939 200.732 507.186 201.195 507.016 201.986L506.4 204.857C506.23 205.695 506.477 206.094 507.127 206.094C507.602 206.094 508.205 205.859 508.457 205.537L508.533 205.168C508.322 205.355 508 205.438 507.807 205.438C507.537 205.438 507.443 205.25 507.514 204.934L508.129 202.062C508.393 200.832 507.9 200.094 506.816 200.094C505.926 200.094 505.205 200.662 504.736 201.752L505.088 200.141ZM511.094 208.637C512.459 208.637 513.842 207.939 513.842 206.797C513.842 206.018 513.361 205.508 512.26 205.279L511.211 205.062C510.678 204.951 510.561 204.787 510.555 204.576C510.549 204.33 510.789 204.113 511.199 203.996C511.393 204.043 511.604 204.066 511.832 204.072C513.303 204.072 514.146 203.059 514.146 201.904C514.146 201.471 514.006 201.072 513.742 200.762L515.096 200.861L515.201 200.328L513.332 200.416C513.004 200.217 512.582 200.1 512.084 200.1C510.613 200.1 509.77 201.107 509.77 202.256C509.77 202.982 510.162 203.598 510.865 203.891C510.027 204.102 509.641 204.465 509.652 204.963C509.658 205.338 509.869 205.654 510.344 205.848C509.271 206.053 508.568 206.545 508.568 207.184C508.568 208.121 509.705 208.637 511.094 208.637ZM510.877 202.449C510.877 201.482 511.305 200.463 512.102 200.463C512.729 200.463 513.039 201.025 513.039 201.717C513.039 202.684 512.611 203.703 511.814 203.703C511.176 203.703 510.877 203.146 510.877 202.449ZM509.5 207.096C509.5 206.586 509.904 206.211 510.725 205.959C510.748 205.965 510.771 205.971 510.795 205.977L511.791 206.176C512.576 206.328 512.887 206.656 512.887 207.107C512.887 207.787 512.102 208.203 511.176 208.203C510.174 208.203 509.5 207.746 509.5 207.096ZM517.334 206.117C518.037 206.117 518.758 205.824 519.162 205.297L519.244 204.91C518.811 205.32 518.26 205.479 517.832 205.479C516.953 205.479 516.35 204.805 516.35 203.568V203.551L516.643 203.469C518.6 202.906 519.736 202.256 519.736 201.295C519.736 200.551 519.121 200.094 518.184 200.094C516.625 200.094 515.189 201.629 515.189 203.686C515.189 205.297 516.197 206.117 517.334 206.117ZM518.102 200.533C518.553 200.533 518.752 200.791 518.752 201.26C518.752 202.08 517.914 202.701 516.648 203.082L516.367 203.17C516.479 201.676 517.199 200.533 518.102 200.533ZM522.678 200.141L520.709 200.404L520.639 200.738L521.113 200.814C521.406 200.879 521.465 200.984 521.406 201.254L520.398 206H521.518L522.314 202.062C522.736 201.453 523.387 201.096 524.061 201.096C524.266 201.096 524.441 201.125 524.535 201.166C524.605 201.078 524.67 200.896 524.67 200.738C524.67 200.375 524.477 200.141 524.125 200.141C523.627 200.141 523.199 200.521 522.344 201.734L522.678 200.141Z" fill="#2C2C4B"/>
<path d="M356.768 165H358.955V160.303L360.537 158.506L365.264 165H367.998L362.08 157.021L367.529 150.908H364.941L359.111 157.568H358.955V150.908H356.768V165ZM370.059 165H372.178V158.779C372.178 157.07 373.145 156.006 374.697 156.006C376.25 156.006 376.982 156.875 376.982 158.633V165H379.092V158.135C379.092 155.605 377.783 154.189 375.41 154.189C373.867 154.189 372.852 154.873 372.334 156.006H372.178V154.395H370.059V165ZM386.543 165.205C389.648 165.205 391.553 163.125 391.553 159.707V159.688C391.553 156.27 389.639 154.189 386.543 154.189C383.438 154.189 381.523 156.279 381.523 159.688V159.707C381.523 163.125 383.428 165.205 386.543 165.205ZM386.543 163.438C384.717 163.438 383.691 162.061 383.691 159.707V159.688C383.691 157.334 384.717 155.957 386.543 155.957C388.359 155.957 389.395 157.334 389.395 159.688V159.707C389.395 162.051 388.359 163.438 386.543 163.438ZM395.713 165H397.871L400.059 157.09H400.225L402.422 165H404.6L407.52 154.395H405.42L403.525 162.578H403.359L401.172 154.395H399.16L396.973 162.578H396.816L394.912 154.395H392.783L395.713 165ZM409.688 165H411.807V158.779C411.807 157.07 412.773 156.006 414.326 156.006C415.879 156.006 416.611 156.875 416.611 158.633V165H418.721V158.135C418.721 155.605 417.412 154.189 415.039 154.189C413.496 154.189 412.48 154.873 411.963 156.006H411.807V154.395H409.688V165Z" fill="#2C2C4B"/>
<path d="M107.461 165.342C111.006 165.342 113.164 163.242 113.164 160.146V150.908H110.977V159.98C110.977 162.021 109.707 163.408 107.461 163.408C105.215 163.408 103.936 162.021 103.936 159.98V150.908H101.748V160.146C101.748 163.242 103.926 165.342 107.461 165.342ZM116.445 165H118.564V158.779C118.564 157.07 119.531 156.006 121.084 156.006C122.637 156.006 123.369 156.875 123.369 158.633V165H125.479V158.135C125.479 155.605 124.17 154.189 121.797 154.189C120.254 154.189 119.238 154.873 118.721 156.006H118.564V154.395H116.445V165ZM128.535 165H130.654V161.143L131.562 160.234L135.215 165H137.793L133.076 158.867L137.5 154.395H135.02L130.811 158.867H130.654V150.234H128.535V165ZM139.727 165H141.846V158.779C141.846 157.07 142.812 156.006 144.365 156.006C145.918 156.006 146.65 156.875 146.65 158.633V165H148.76V158.135C148.76 155.605 147.451 154.189 145.078 154.189C143.535 154.189 142.52 154.873 142.002 156.006H141.846V154.395H139.727V165ZM156.211 165.205C159.316 165.205 161.221 163.125 161.221 159.707V159.688C161.221 156.27 159.307 154.189 156.211 154.189C153.105 154.189 151.191 156.279 151.191 159.688V159.707C151.191 163.125 153.096 165.205 156.211 165.205ZM156.211 163.438C154.385 163.438 153.359 162.061 153.359 159.707V159.688C153.359 157.334 154.385 155.957 156.211 155.957C158.027 155.957 159.062 157.334 159.062 159.688V159.707C159.062 162.051 158.027 163.438 156.211 163.438ZM165.381 165H167.539L169.727 157.09H169.893L172.09 165H174.268L177.188 154.395H175.088L173.193 162.578H173.027L170.84 154.395H168.828L166.641 162.578H166.484L164.58 154.395H162.451L165.381 165ZM179.355 165H181.475V158.779C181.475 157.07 182.441 156.006 183.994 156.006C185.547 156.006 186.279 156.875 186.279 158.633V165H188.389V158.135C188.389 155.605 187.08 154.189 184.707 154.189C183.164 154.189 182.148 154.873 181.631 156.006H181.475V154.395H179.355V165Z" fill="#2C2C4B"/>
<path d="M19 132C132 132 152.8 25.6 260 28" stroke="#2C2C4B" stroke-width="3"/>
<path d="M501 132C388 132 367.2 25.6 260 28" stroke="#2C2C4B" stroke-width="3"/>
<path d="M7 132L513 132" stroke="#2C2C4B" stroke-width="4"/>
<path fill-rule="evenodd" clip-rule="evenodd" d="M259 163.625L259 156.187L261 156.187L261 163.625L259 163.625ZM259 148.75L259 141.312L261 141.312L261 148.75L259 148.75ZM259 133.875L259 126.437L261 126.437L261 133.875L259 133.875ZM259 119L259 111.562L261 111.562L261 119L259 119ZM259 104.125L259 96.6875L261 96.6875L261 104.125L259 104.125ZM259 89.25L259 81.8125L261 81.8125L261 89.25L259 89.25ZM259 74.375L259 66.9375L261 66.9375L261 74.375L259 74.375ZM259 59.5L259 52.0625L261 52.0625L261 59.5L259 59.5ZM259 44.625L259 37.1875L261 37.1875L261 44.625L259 44.625ZM259 29.75L259 22.3125L261 22.3125L261 29.75L259 29.75ZM259 14.875L259 7.4375L261 7.4375L261 14.875L259 14.875Z" fill="#2C2C4B" fill-opacity="0.3"/>
<circle cx="7" cy="132" r="7" fill="#2C2C4B"/>
<circle cx="508" cy="132" r="7" fill="#2C2C4B"/>
<circle cx="327" cy="43" r="9" fill="#F3F3F8"/>
<circle cx="327" cy="43" r="5" fill="#2C2C4B"/>
<circle cx="193" cy="42" r="7" fill="#2C2C4B"/>
<path d="M259.789 74.0858L259.787 74.5858L259.789 74.0858ZM199.959 49.6343C199.683 49.6571 199.479 49.8988 199.502 50.174L199.874 54.6585C199.897 54.9337 200.139 55.1382 200.414 55.1154C200.689 55.0925 200.894 54.8509 200.871 54.5757L200.54 50.5894L204.526 50.2581C204.801 50.2353 205.006 49.9936 204.983 49.7184C204.96 49.4432 204.718 49.2387 204.443 49.2616L199.959 49.6343ZM320.489 48C320.154 47.6289 320.154 47.6289 320.154 47.6289C320.154 47.6289 320.154 47.6289 320.154 47.6289C320.154 47.6289 320.154 47.6289 320.154 47.6289C320.154 47.629 320.153 47.6292 320.153 47.6294C320.153 47.6298 320.152 47.6304 320.151 47.6313C320.149 47.6331 320.146 47.6359 320.142 47.6397C320.133 47.6473 320.12 47.6588 320.103 47.6741C320.069 47.7048 320.017 47.7507 319.948 47.8112C319.81 47.9321 319.605 48.1109 319.334 48.3414C318.793 48.8023 317.992 49.4696 316.958 50.2919L317.58 51.0746C318.624 50.2448 319.433 49.5704 319.982 49.1027C320.257 48.8689 320.466 48.6868 320.608 48.5627C320.678 48.5006 320.732 48.4531 320.768 48.4209C320.786 48.4048 320.8 48.3926 320.809 48.3842C320.814 48.3801 320.818 48.3769 320.82 48.3747C320.821 48.3736 320.822 48.3727 320.823 48.3721C320.823 48.3718 320.823 48.3716 320.824 48.3714C320.824 48.3713 320.824 48.3713 320.824 48.3712C320.824 48.3712 320.824 48.3712 320.824 48.3712C320.824 48.3711 320.824 48.3711 320.489 48ZM310.215 55.2836C308.129 56.7246 305.763 58.2713 303.161 59.8329L303.676 60.6903C306.298 59.1166 308.682 57.5581 310.783 56.1063L310.215 55.2836ZM295.827 63.9033C293.411 65.1353 290.867 66.3247 288.219 67.4229L288.602 68.3466C291.276 67.2374 293.844 66.0369 296.282 64.7941L295.827 63.9033ZM280.349 70.285C277.71 71.107 275.002 71.8089 272.244 72.3513L272.437 73.3325C275.233 72.7825 277.976 72.0714 280.646 71.2397L280.349 70.285ZM263.965 73.4533C262.58 73.5463 261.188 73.5919 259.791 73.5858L259.787 74.5858C261.208 74.592 262.624 74.5455 264.032 74.4511L263.965 73.4533ZM259.791 73.5858C258.429 73.5799 257.074 73.5298 255.727 73.4393L255.66 74.4371C257.027 74.5289 258.403 74.5798 259.787 74.5858L259.791 73.5858ZM247.659 72.4247C244.959 71.9319 242.312 71.2995 239.736 70.5614L239.46 71.5227C242.066 72.2691 244.745 72.9092 247.48 73.4084L247.659 72.4247ZM232.009 67.9777C229.396 66.9808 226.887 65.9009 224.506 64.7813L224.08 65.6863C226.482 66.8155 229.014 67.9054 231.653 68.9121L232.009 67.9777ZM217.24 61.0568C214.655 59.6209 212.306 58.1968 210.235 56.868L209.695 57.7096C211.781 59.0486 214.149 60.4838 216.755 61.931L217.24 61.0568ZM203.514 52.2361C202.48 51.4691 201.681 50.8464 201.141 50.4161C200.871 50.2009 200.665 50.0339 200.528 49.921C200.459 49.8646 200.408 49.8217 200.373 49.7931C200.356 49.7788 200.343 49.7681 200.335 49.761C200.331 49.7575 200.328 49.7549 200.326 49.7532C200.325 49.7523 200.324 49.7517 200.324 49.7513C200.323 49.7512 200.323 49.751 200.323 49.751C200.323 49.7509 200.323 49.7509 200.323 49.7509C200.323 49.7509 200.323 49.7509 200.323 49.7509C200.323 49.7509 200.323 49.7509 200 50.1325C199.677 50.5142 199.677 50.5142 199.677 50.5142C199.677 50.5142 199.677 50.5143 199.677 50.5143C199.677 50.5143 199.677 50.5144 199.677 50.5145C199.678 50.5146 199.678 50.5149 199.678 50.5151C199.679 50.5157 199.68 50.5165 199.681 50.5175C199.683 50.5196 199.687 50.5226 199.692 50.5265C199.701 50.5343 199.715 50.5458 199.733 50.5609C199.769 50.591 199.822 50.6354 199.893 50.6935C200.034 50.8095 200.243 50.9797 200.517 51.1982C201.066 51.6351 201.874 52.2649 202.918 53.0391L203.514 52.2361ZM259.789 74.0858L259.784 75.0858L259.789 74.0858ZM199.917 49.136C199.367 49.1817 198.958 49.665 199.004 50.2154L199.749 59.1844C199.795 59.7348 200.278 60.1439 200.828 60.0982C201.379 60.0524 201.788 59.5692 201.742 59.0188L201.079 51.0463L209.052 50.3837C209.602 50.338 210.011 49.8547 209.966 49.3043C209.92 48.754 209.437 48.3449 208.886 48.3906L199.917 49.136ZM320.489 48C319.819 47.2578 319.819 47.2578 319.819 47.2577C319.819 47.2577 319.819 47.2577 319.819 47.2577C319.819 47.2577 319.819 47.2577 319.819 47.2577C319.819 47.2577 319.819 47.2578 319.818 47.258C319.818 47.2583 319.818 47.2588 319.817 47.2597C319.815 47.2613 319.812 47.2639 319.808 47.2675C319.8 47.2747 319.787 47.2858 319.771 47.3007C319.737 47.3306 319.686 47.3758 319.618 47.4354C319.482 47.5547 319.278 47.7319 319.01 47.9607C318.472 48.4183 317.676 49.082 316.647 49.9006L317.891 51.466C318.94 50.6324 319.753 49.9544 320.307 49.4834C320.583 49.2479 320.795 49.0641 320.938 48.9384C321.009 48.8756 321.064 48.8273 321.101 48.7943C321.119 48.7778 321.133 48.7652 321.143 48.7565C321.148 48.7521 321.152 48.7487 321.154 48.7464C321.156 48.7452 321.157 48.7442 321.158 48.7435C321.158 48.7432 321.158 48.7429 321.158 48.7427C321.159 48.7426 321.159 48.7425 321.159 48.7424C321.159 48.7424 321.159 48.7423 321.159 48.7423C321.159 48.7422 321.159 48.7422 320.489 48ZM309.93 54.8722C307.853 56.3079 305.495 57.8487 302.904 59.4042L303.933 61.119C306.565 59.5392 308.958 57.9749 311.067 56.5176L309.93 54.8722ZM295.6 63.4578C293.194 64.6846 290.662 65.8683 288.027 66.9611L288.793 68.8085C291.481 67.6938 294.061 66.4877 296.509 65.2396L295.6 63.4578ZM280.2 69.8076C277.577 70.6248 274.886 71.322 272.148 71.8607L272.534 73.8231C275.349 73.2693 278.11 72.5537 280.795 71.7171L280.2 69.8076ZM263.931 72.9545C262.558 73.0466 261.178 73.0919 259.793 73.0858L259.784 75.0858C261.218 75.0921 262.646 75.0452 264.065 74.95L263.931 72.9545ZM259.793 73.0858C258.442 73.0799 257.098 73.0302 255.76 72.9404L255.626 74.936C257.004 75.0284 258.39 75.0797 259.784 75.0858L259.793 73.0858ZM247.749 71.9328C245.067 71.4432 242.436 70.8147 239.874 70.0807L239.323 72.0034C241.943 72.7539 244.638 73.3979 247.39 73.9003L247.749 71.9328ZM232.188 67.5106C229.587 66.5185 227.089 65.4436 224.718 64.3288L223.867 66.1388C226.28 67.2728 228.823 68.3677 231.475 69.3792L232.188 67.5106ZM217.483 60.6197C214.908 59.1895 212.568 57.7709 210.505 56.4472L209.425 58.1304C211.519 59.4745 213.896 60.9152 216.512 62.3681L217.483 60.6197ZM203.812 51.8345C202.783 51.0713 201.988 50.452 201.452 50.025C201.184 49.8115 200.981 49.6461 200.846 49.5348C200.778 49.4791 200.727 49.437 200.694 49.4092C200.677 49.3953 200.665 49.3849 200.657 49.3782C200.653 49.3749 200.65 49.3725 200.648 49.371C200.647 49.3702 200.647 49.3697 200.646 49.3694C200.646 49.3693 200.646 49.3692 200.646 49.3692C200.646 49.3692 200.646 49.3692 200.646 49.3692C200.646 49.3692 200.646 49.3692 200.646 49.3692C200.646 49.3693 200.646 49.3693 200 50.1325C199.354 50.8958 199.354 50.8958 199.354 50.8959C199.354 50.8959 199.354 50.8959 199.354 50.896C199.354 50.896 199.354 50.8961 199.354 50.8962C199.355 50.8965 199.355 50.8967 199.355 50.897C199.356 50.8977 199.357 50.8986 199.359 50.8997C199.361 50.902 199.365 50.9051 199.37 50.9092C199.38 50.9174 199.394 50.9293 199.412 50.9448C199.449 50.9757 199.504 51.0209 199.575 51.0797C199.718 51.1973 199.93 51.3692 200.206 51.5893C200.758 52.0295 201.571 52.6628 202.62 53.4407L203.812 51.8345Z" fill="#2C2C4B"/>
</svg>
