<?xml version="1.0" encoding="utf-8"?>
<!-- Generator: Adobe Illustrator 22.0.1, SVG Export Plug-In . SVG Version: 6.00 Build 0)  -->
<svg version="1.1" id="Layer_1" xmlns="http://www.w3.org/2000/svg" xmlns:xlink="http://www.w3.org/1999/xlink" x="0px" y="0px"
	 viewBox="0 0 500 500" style="enable-background:new 0 0 500 500;" xml:space="preserve">
<style type="text/css">
	.st0{fill:#00AEEF;}
</style>
<g>
	<path class="st0" d="M130.8,454.8c9.2,5.6,19.7,7.6,29.2,7.6h143.8c-38.4-8.2-75.3-21.3-110.9-34.6
		C173.5,438.8,152.8,448.3,130.8,454.8z"/>
	<path class="st0" d="M389.1,437.3l90.5-158.6c8.9-15.6,8.9-41.1,0-56.7l-90.5-157c-8.9-15.6-30.8-26.7-48.8-26.7H160
		c-17.9,0-39.9,11.1-48.8,26.7L20.7,222.9c-8.9,15.6-8.9,40.7,0,56.3l52.6,92c35.8,9,75.1,22.7,117.5,36.5
		c50.9-36,86.5-84,110.5-115.9c0-2.1-2.1-2.1-2.1-2.1c-0.8,0-1.7,0.4-3.3,2.1C285.6,302,240.5,338,207.8,338c-14,0-20.7-5.9-22.1-16
		c-21.7,18.2-40.4,26.7-53.6,26.7c-13.2,0-21.5-8.7-21.5-24.4c0-35.6,62.5-120,88.5-146c9.9-9.5,11.6-9.5,23.2-9.5
		c7.4,0,12,1.2,12,4.6c0,0.8-0.4,1.2-0.8,2.1c-26.1,32.7-86.1,107.6-86.1,140.3c0,10.8,3.3,16.1,9.1,16.1c6.4,0,16.1-6.2,29.3-18.5
		c6.5-50.6,109.9-161.5,214-161.5c14.5,0,19.4,5.4,19.4,11.6c0,9.5-11.6,21.5-17.8,21.5c-0.8,0,0.4-21.5-19-21.5
		c-72.4,0-156,103.8-156,132c0,4.1,1.7,7,6.2,7c33.1,0,83.6-42.6,102.6-62.5c7-7.4,17.8-20.7,23.2-26.5c4.1-4.6,13.2-5,18.2-5
		c7.4,0,14.5,1.2,14.5,4.6c0,0.8-0.4,1.2-0.8,2.1c-7,9.9-25.7,32.7-36.4,49.2c-43.4,65-86.9,115.8-137.8,151
		c50.7,15.8,105.1,29.8,162.8,34.2C383,445.8,386.6,441.7,389.1,437.3z M249.6,141.9c-14.5,0-24-9.9-24-23.6
		c0-19.4,18.2-36.4,36.8-36.4c14.5,0,24.4,10.3,24.4,23.6C286.8,124.9,268.6,141.9,249.6,141.9z"/>
	<path class="st0" d="M116.2,444.3c19.2-5.8,36.9-13.7,53.1-23.1c-28.7-10.7-56.6-21.1-83.9-29l25.8,45.2
		C112.6,439.7,114.3,442,116.2,444.3z"/>
</g>
</svg>
