<svg width="90" height="90" viewBox="0 0 90 90" fill="none" xmlns="http://www.w3.org/2000/svg">
<path d="M45 90C69.8528 90 90 69.8528 90 45C90 20.1472 69.8528 0 45 0C20.1472 0 0 20.1472 0 45C0 69.8528 20.1472 90 45 90Z" fill="#B9EEE9"/>
<mask id="mask0_213_1382" style="mask-type:luminance" maskUnits="userSpaceOnUse" x="0" y="0" width="90" height="90">
<path d="M45 90C69.8528 90 90 69.8528 90 45C90 20.1472 69.8528 0 45 0C20.1472 0 0 20.1472 0 45C0 69.8528 20.1472 90 45 90Z" fill="white"/>
</mask>
<g mask="url(#mask0_213_1382)">
<path fill-rule="evenodd" clip-rule="evenodd" d="M45 11.5714C54.9412 11.5714 63 19.6303 63 29.5714L63.0003 31.5534C64.8244 31.8595 66.2143 33.446 66.2143 35.3571V39.8571C66.2143 41.8025 64.7741 43.4116 62.9017 43.6761C62.2376 50.0421 58.2551 55.4212 52.7146 58.0533L52.7143 63.9643H54C66.7815 63.9643 77.1429 74.3257 77.1429 87.1071V90H12.8572V87.1071C12.8572 74.3257 23.2186 63.9643 36 63.9643H37.2857L37.2857 58.0535C31.7451 55.4214 27.7625 50.0422 27.0981 43.676C25.226 43.4116 23.7857 41.8025 23.7857 39.8571V35.3571C23.7857 33.4459 25.1758 31.8593 27.0001 31.5533L27 29.5714C27 19.6303 35.0589 11.5714 45 11.5714Z" fill="#EAC7A8"/>
<path fill-rule="evenodd" clip-rule="evenodd" d="M37.2852 58.0533C39.6234 59.1641 42.2391 59.7857 45 59.7857C47.7607 59.7857 50.3762 59.1642 52.7143 58.0535L52.7144 59.7683C50.6063 61.1995 48.0615 62.0357 45.3214 62.0357C42.2965 62.0357 39.5096 61.0166 37.2853 59.3029L37.2852 58.0533Z" fill="black" fill-opacity="0.24"/>
<path fill-rule="evenodd" clip-rule="evenodd" d="M42.4287 41.4643C42.4287 43.2395 43.7296 44.0357 45.0001 44.0357C46.2707 44.0357 47.5716 43.2395 47.5716 41.4643C46.875 41.6995 46.0096 41.8171 44.9756 41.8171C43.9525 41.8171 43.1035 41.6995 42.4287 41.4643Z" fill="black" fill-opacity="0.16"/>
<path fill-rule="evenodd" clip-rule="evenodd" d="M34.3929 64.3974C34.3929 68.2106 39.2138 71.3017 45.1607 71.3017C51.1077 71.3017 55.9286 68.2106 55.9286 64.3974C55.9286 64.284 55.9243 64.1712 55.9159 64.0592C67.801 65.033 77.1429 74.9874 77.1429 87.1238V90H12.8572V87.1238C12.8572 74.8775 22.3691 64.8528 34.4079 64.0348C34.3978 64.1554 34.3929 64.2761 34.3929 64.3974Z" fill="black"/>
<mask id="mask1_213_1382" style="mask-type:luminance" maskUnits="userSpaceOnUse" x="12" y="64" width="66" height="26">
<g opacity="0.6">
<path fill-rule="evenodd" clip-rule="evenodd" d="M34.3929 64.3974C34.3929 68.2106 39.2138 71.3017 45.1607 71.3017C51.1077 71.3017 55.9286 68.2106 55.9286 64.3974C55.9286 64.284 55.9243 64.1712 55.9159 64.0592C67.801 65.033 77.1429 74.9874 77.1429 87.1238V90H12.8572V87.1238C12.8572 74.8775 22.3691 64.8528 34.4079 64.0348C34.3978 64.1554 34.3929 64.2761 34.3929 64.3974Z" fill="white" fill-opacity="0.16"/>
</g>
</mask>
<g mask="url(#mask1_213_1382)">
<g opacity="0.6">
<path d="M45.1607 73.5306C52.1967 73.5306 57.9005 69.6575 57.9005 64.8797C57.9005 60.1019 52.1967 56.2288 45.1607 56.2288C38.1247 56.2288 32.4209 60.1019 32.4209 64.8797C32.4209 69.6575 38.1247 73.5306 45.1607 73.5306Z" fill="black" fill-opacity="0.16"/>
</g>
</g>
<path d="M40.5 48.2143C40.5 49.9409 42.4794 51.1071 45 51.1071C47.5206 51.1071 49.5 49.9409 49.5 48.2143C49.5 47.8592 49.1947 47.5714 48.8571 47.5714C48.4416 47.5714 48.2561 47.8624 48.2143 48.2143C47.8149 49.1586 46.8268 49.7302 45 49.8214C43.1732 49.7302 42.1851 49.1586 41.7857 48.2143C41.7439 47.8624 41.5584 47.5714 41.1429 47.5714C40.8053 47.5714 40.5 47.8592 40.5 48.2143Z" fill="black" fill-opacity="0.6"/>
<path d="M36.6429 37.9286C37.708 37.9286 38.5715 37.0651 38.5715 36C38.5715 34.9349 37.708 34.0714 36.6429 34.0714C35.5778 34.0714 34.7144 34.9349 34.7144 36C34.7144 37.0651 35.5778 37.9286 36.6429 37.9286Z" fill="black" fill-opacity="0.6"/>
<path d="M53.3573 37.9286C54.4224 37.9286 55.2859 37.0651 55.2859 36C55.2859 34.9349 54.4224 34.0714 53.3573 34.0714C52.2922 34.0714 51.4287 34.9349 51.4287 36C51.4287 37.0651 52.2922 37.9286 53.3573 37.9286Z" fill="black" fill-opacity="0.6"/>
<path d="M32.0241 31.8724C33.2825 30.1017 36.7323 29.1088 39.7039 29.8386C40.0487 29.9233 40.3969 29.7124 40.4815 29.3676C40.5662 29.0228 40.3553 28.6746 40.0105 28.59C36.5595 27.7425 32.5647 28.8922 30.9761 31.1276C30.7704 31.417 30.8383 31.8183 31.1277 32.024C31.4171 32.2297 31.8184 32.1618 32.0241 31.8724Z" fill="black" fill-opacity="0.6"/>
<path d="M57.9762 31.8724C56.7178 30.1017 53.268 29.1088 50.2963 29.8386C49.9515 29.9233 49.6034 29.7124 49.5187 29.3676C49.434 29.0228 49.6449 28.6746 49.9897 28.59C53.4408 27.7425 57.4356 28.8922 59.0242 31.1276C59.2298 31.417 59.162 31.8183 58.8726 32.024C58.5832 32.2297 58.1818 32.1618 57.9762 31.8724Z" fill="black" fill-opacity="0.6"/>
<path fill-rule="evenodd" clip-rule="evenodd" d="M50.9234 54.697C50.1155 55.4344 49.2548 55.766 48.167 55.5341C47.9798 55.4943 47.2167 54.0754 45.3214 54.0754C43.4261 54.0754 42.663 55.4943 42.4757 55.5341C41.3879 55.766 40.5273 55.4344 39.7193 54.697C38.2006 53.3107 36.9375 51.3991 37.6964 49.3133C38.092 48.2262 38.7353 47.0326 39.9056 46.6862C41.1552 46.3164 42.9097 46.6855 44.169 46.433C44.577 46.3511 45.0227 46.2056 45.3214 45.9643C45.62 46.2056 46.0658 46.3511 46.4736 46.433C47.733 46.6855 49.4875 46.3164 50.7372 46.6862C51.9075 47.0326 52.5508 48.2262 52.9464 49.3133C53.7054 51.3991 52.4423 53.3107 50.9234 54.697ZM63.3475 31.5C62.2513 34.2001 62.6746 37.5615 62.4718 40.3958C62.307 42.6996 61.8226 46.1526 59.777 47.6404C58.7309 48.4012 56.8268 49.68 55.4599 49.3233C54.519 49.0778 54.4186 46.379 53.1821 45.3687C51.7795 44.2229 50.0281 43.7194 48.2622 43.7972C47.5002 43.8307 45.9592 43.8228 45.3214 44.4087C44.6836 43.8228 43.1427 43.8307 42.3807 43.7972C40.6147 43.7194 38.8633 44.2229 37.4608 45.3687C36.2243 46.379 36.124 49.0778 35.183 49.3233C33.8162 49.68 31.912 48.4012 30.8658 47.6404C28.8201 46.1526 28.3359 42.6996 28.1709 40.3958C27.9682 37.5615 28.3915 34.2001 27.2953 31.5C26.7621 31.5 27.1138 36.6843 27.1138 36.6843V43.2274C27.124 48.1414 30.1934 55.4964 36.999 58.3049C38.6634 58.9917 42.4335 60.1071 45.3214 60.1071C48.2093 60.1071 51.9794 59.0979 53.6438 58.4111C60.4494 55.6026 63.5188 48.1414 63.5291 43.2274V36.6843C63.5291 36.6843 63.8807 31.5 63.3475 31.5Z" fill="#724133"/>
<path fill-rule="evenodd" clip-rule="evenodd" d="M32.5453 16.7214C32.5849 16.7039 32.4868 16.6972 32.251 16.7013C32.5375 16.7007 32.6357 16.7074 32.5453 16.7214ZM29.9305 11.6684C29.9359 11.7169 29.9298 11.6621 29.9305 11.6684ZM64.5317 22.7461C64.4468 21.6799 64.2964 20.6202 64.0436 19.5786C63.8429 18.7506 63.5687 17.9606 63.2444 17.1707C63.0485 16.6935 62.5911 16.038 62.5373 15.5232C62.4843 15.0161 62.88 14.4544 62.9645 13.864C63.0465 13.2894 63.0325 12.6852 62.9146 12.1159C62.6469 10.8228 61.7594 9.62037 60.3892 9.28331C60.0832 9.20802 59.4365 9.3008 59.2203 9.12264C58.9725 8.91834 58.7999 8.22236 58.5755 7.94319C57.9357 7.14735 56.9379 6.63484 55.8855 6.81352C55.1106 6.94503 55.5556 7.10528 54.9746 6.64921C54.6516 6.39566 54.4102 6.00851 54.0965 5.73403C53.6249 5.32169 53.0839 4.9687 52.5241 4.67902C51.0594 3.92108 49.3889 3.37014 47.7528 3.1016C44.7683 2.61168 41.5829 3.03881 38.69 3.81497C37.2505 4.20118 35.8013 4.69131 34.4643 5.3395C33.891 5.61741 33.5601 5.84795 32.9624 5.92073C32.021 6.03538 31.2238 6.02965 30.332 6.42887C27.5882 7.65736 26.3524 10.5074 27.4201 13.2348C27.6348 13.7834 27.9256 14.2651 28.3265 14.7081C28.8153 15.2483 28.9921 15.142 28.5711 15.7632C27.9415 16.6922 27.4108 17.6827 26.9786 18.7113C25.8443 21.4118 25.6545 24.4534 25.7284 27.3334C25.7542 28.3417 25.7975 29.3623 25.9565 30.3609C26.0251 30.7931 26.0444 31.6059 26.3686 31.9266C26.5331 32.0892 26.7674 32.1799 27.0012 32.1151C27.5507 31.9629 27.3618 31.5574 27.3745 31.181C27.4388 29.2899 27.352 27.6169 27.8018 25.7485C28.134 24.3681 28.6877 23.1144 29.4053 21.8801C30.3177 20.3102 31.3026 18.9314 32.5574 17.5871C32.8524 17.271 32.9169 17.137 33.3125 17.1141C33.612 17.0968 34.0502 17.3019 34.3415 17.3729C34.9836 17.5294 35.6269 17.6842 36.2808 17.7896C37.4829 17.9833 38.6732 17.9963 39.8862 17.9583C42.2732 17.8837 44.6705 17.7162 46.9849 17.1151C48.522 16.716 49.8847 15.9995 51.3569 15.4743C51.3832 15.4649 51.7522 15.202 51.8169 15.2127C51.9072 15.2276 52.4523 15.7996 52.5443 15.8716C53.2597 16.4327 54.0444 16.6682 54.817 17.1026C55.7695 17.6383 54.847 16.8718 55.3724 17.5393C55.5255 17.7337 55.6039 18.0942 55.7268 18.3145C56.1176 19.0161 56.6614 19.6327 57.3117 20.122C57.9401 20.5947 58.8846 20.8231 59.205 21.4384C59.4521 21.9131 59.5354 22.5583 59.7348 23.065C60.2579 24.3942 60.9487 25.6338 61.6395 26.8857C62.196 27.8946 62.8048 28.7759 62.8666 29.9288C62.8881 30.3301 62.5063 32.7373 63.4364 32.0052C63.5743 31.8967 63.8716 30.6693 63.9327 30.4611C64.1806 29.6148 64.2687 28.7314 64.3809 27.862C64.6042 26.1328 64.6775 24.4876 64.5317 22.7461Z" fill="#724133"/>
</g>
</svg>
