<svg width="90" height="90" viewBox="0 0 90 90" fill="none" xmlns="http://www.w3.org/2000/svg">
<path d="M45 90C69.8528 90 90 69.8528 90 45C90 20.1472 69.8528 0 45 0C20.1472 0 0 20.1472 0 45C0 69.8528 20.1472 90 45 90Z" fill="#B9EEE9"/>
<mask id="mask0_213_1116" style="mask-type:luminance" maskUnits="userSpaceOnUse" x="0" y="0" width="90" height="90">
<path d="M45 90C69.8528 90 90 69.8528 90 45C90 20.1472 69.8528 0 45 0C20.1472 0 0 20.1472 0 45C0 69.8528 20.1472 90 45 90Z" fill="white"/>
</mask>
<g mask="url(#mask0_213_1116)">
<path fill-rule="evenodd" clip-rule="evenodd" d="M45 11.5714C54.9412 11.5714 63 19.6303 63 29.5714L63.0003 31.5534C64.8244 31.8595 66.2143 33.446 66.2143 35.3571V39.8571C66.2143 41.8025 64.7741 43.4116 62.9017 43.6761C62.2376 50.0421 58.2551 55.4212 52.7146 58.0533L52.7143 63.9643H54C66.7815 63.9643 77.1429 74.3257 77.1429 87.1071V90H12.8572V87.1071C12.8572 74.3257 23.2186 63.9643 36 63.9643H37.2857L37.2857 58.0535C31.7451 55.4214 27.7625 50.0422 27.0981 43.676C25.226 43.4116 23.7857 41.8025 23.7857 39.8571V35.3571C23.7857 33.4459 25.1758 31.8593 27.0001 31.5533L27 29.5714C27 19.6303 35.0589 11.5714 45 11.5714Z" fill="#EAC7A8"/>
<path fill-rule="evenodd" clip-rule="evenodd" d="M37.2852 58.0533C39.6234 59.1642 42.2391 59.7857 45 59.7857C47.7607 59.7857 50.3762 59.1643 52.7143 58.0536L52.7144 59.7683C50.6063 61.1995 48.0615 62.0357 45.3214 62.0357C42.2965 62.0357 39.5096 61.0166 37.2853 59.3029L37.2852 58.0533Z" fill="black" fill-opacity="0.24"/>
<path fill-rule="evenodd" clip-rule="evenodd" d="M42.4287 41.4643C42.4287 43.2395 43.7296 44.0357 45.0001 44.0357C46.2707 44.0357 47.5716 43.2395 47.5716 41.4643C46.875 41.6995 46.0096 41.8171 44.9756 41.8171C43.9525 41.8171 43.1035 41.6995 42.4287 41.4643Z" fill="black" fill-opacity="0.16"/>
<path fill-rule="evenodd" clip-rule="evenodd" d="M52.6757 64.8002H53.955C66.6727 64.8002 76.9821 74.904 76.9821 87.3681V90.1891H13.0178V87.3681L13.021 86.9948C13.2244 74.7031 23.4546 64.8002 36.045 64.8002H37.3243C37.3243 64.8002 37.2612 68.6935 44.9974 68.6935C52.7336 68.6935 52.6757 64.8002 52.6757 64.8002Z" fill="#EDEDED"/>
<path fill-rule="evenodd" clip-rule="evenodd" d="M50.7294 90.1891L47.2597 72.9538C48.5489 72.5389 49.413 71.7903 49.413 70.9327C49.413 69.6264 47.4131 68.5671 44.9467 68.5671C42.48 68.5671 40.4804 69.6264 40.4804 70.9327C40.4804 71.7903 41.3446 72.5389 42.6338 72.9538L39.1641 90.1891H50.7294Z" fill="#5A50FF"/>
<path fill-rule="evenodd" clip-rule="evenodd" d="M40.6113 73.62L45.0065 69.1937L49.4017 73.62L58.3866 64.5711C56.9795 64.303 55.5294 64.1573 54.0447 64.1573H52.7526C52.7526 64.1573 52.811 68.1984 44.9971 68.1984C37.1832 68.1984 37.2472 64.1573 37.2472 64.1573H35.955C34.4742 64.1573 33.0277 64.3017 31.6238 64.5685L40.6113 73.62Z" fill="white"/>
<path fill-rule="evenodd" clip-rule="evenodd" d="M54.0449 63.8359H52.7595V90.1891H77.3035V87.261C77.3035 74.3235 66.8904 63.8359 54.0449 63.8359Z" fill="#191919"/>
<path fill-rule="evenodd" clip-rule="evenodd" d="M37.2472 63.8359H35.9551C23.2382 63.8359 12.9052 74.1149 12.6994 86.8735L12.6965 87.261V90.1891H37.2472V63.8359Z" fill="#191919"/>
<path fill-rule="evenodd" clip-rule="evenodd" d="M34.1918 63.9019L25.5964 77.8041L32.8131 82.059L28.3687 88.2637L30.4807 90.1891H37.2474V63.8359C37.2474 63.8359 36.246 63.8495 34.1918 63.9019Z" fill="#2B2B2B"/>
<path fill-rule="evenodd" clip-rule="evenodd" d="M55.8578 63.908L64.4102 77.8043L57.1936 82.0589L61.6382 88.2636L59.5256 90.189L52.7593 90.1887V63.8354C52.7593 63.8354 53.8037 63.8556 55.8578 63.908Z" fill="#2B2B2B"/>
<path d="M40.5 48.2143C40.5 49.9409 42.4794 51.1071 45 51.1071C47.5206 51.1071 49.5 49.9409 49.5 48.2143C49.5 47.8592 49.1947 47.5714 48.8571 47.5714C48.4416 47.5714 48.2561 47.8624 48.2143 48.2143C47.8149 49.1586 46.8268 49.7302 45 49.8214C43.1732 49.7302 42.1851 49.1586 41.7857 48.2143C41.7439 47.8624 41.5584 47.5714 41.1429 47.5714C40.8053 47.5714 40.5 47.8592 40.5 48.2143Z" fill="black" fill-opacity="0.6"/>
<path d="M36.6429 37.9286C37.708 37.9286 38.5715 37.0651 38.5715 36C38.5715 34.9349 37.708 34.0714 36.6429 34.0714C35.5778 34.0714 34.7144 34.9349 34.7144 36C34.7144 37.0651 35.5778 37.9286 36.6429 37.9286Z" fill="black" fill-opacity="0.6"/>
<path d="M53.3573 37.9286C54.4224 37.9286 55.2859 37.0651 55.2859 36C55.2859 34.9349 54.4224 34.0714 53.3573 34.0714C52.2922 34.0714 51.4287 34.9349 51.4287 36C51.4287 37.0651 52.2922 37.9286 53.3573 37.9286Z" fill="black" fill-opacity="0.6"/>
<path d="M32.0241 31.8724C33.2825 30.1017 36.7323 29.1088 39.7039 29.8386C40.0487 29.9233 40.3969 29.7124 40.4815 29.3676C40.5662 29.0228 40.3553 28.6746 40.0105 28.59C36.5595 27.7425 32.5647 28.8922 30.9761 31.1276C30.7704 31.417 30.8383 31.8183 31.1277 32.024C31.4171 32.2297 31.8184 32.1618 32.0241 31.8724Z" fill="black" fill-opacity="0.6"/>
<path d="M57.9762 31.8724C56.7178 30.1017 53.268 29.1088 50.2963 29.8386C49.9515 29.9233 49.6034 29.7124 49.5187 29.3676C49.434 29.0228 49.6449 28.6746 49.9897 28.59C53.4408 27.7425 57.4356 28.8922 59.0242 31.1276C59.2298 31.417 59.162 31.8183 58.8726 32.024C58.5832 32.2297 58.1818 32.1618 57.9762 31.8724Z" fill="black" fill-opacity="0.6"/>
<path fill-rule="evenodd" clip-rule="evenodd" d="M60.1553 12.8316C59.2682 11.9251 58.2383 11.1558 57.2365 10.3843C57.0154 10.2142 56.7908 10.0482 56.5747 9.87167C56.5256 9.83155 56.0224 9.47114 55.9622 9.33849C55.8172 9.01938 55.9012 9.26785 55.9212 8.88705C55.9465 8.40553 56.9284 7.0455 56.1957 6.73362C55.8733 6.59644 55.2984 6.96149 54.9892 7.08206C54.3844 7.31803 53.7723 7.51926 53.1471 7.69279C53.4466 7.09598 54.0177 5.90128 52.9443 6.22103C52.1081 6.47015 51.3289 7.11064 50.4886 7.41196C50.7666 6.95621 51.8785 5.54399 50.8738 5.46505C50.5611 5.44046 49.6514 6.02691 49.3148 6.15201C48.3065 6.52677 47.2767 6.76899 46.2181 6.95977C42.6188 7.60845 38.4098 7.4235 35.0796 9.06219C32.5123 10.3255 29.9772 12.2857 28.4941 14.7817C27.0646 17.1876 26.5299 19.8206 26.2307 22.5776C26.0112 24.6008 25.9934 26.6923 26.096 28.7229C26.1296 29.3882 26.2044 32.4549 27.1709 31.5262C27.6525 31.0634 27.6489 29.1948 27.7702 28.5623C28.0115 27.3038 28.2439 26.0398 28.6463 24.8216C29.3554 22.6748 30.192 20.3881 31.9586 18.9096C33.0923 17.9609 33.8884 16.6786 34.9733 15.7215C35.4606 15.2916 35.0888 15.3364 35.8723 15.3928C36.3987 15.4306 36.9274 15.4451 37.4548 15.4589C38.675 15.4906 39.8971 15.4825 41.1175 15.4868C43.5754 15.4956 46.0218 15.5304 48.4774 15.4017C49.5686 15.3446 50.6628 15.3136 51.7512 15.2127C52.3591 15.1563 53.4379 14.7666 53.9384 15.0644C54.3964 15.3368 54.872 16.2263 55.2009 16.5906C55.9778 17.4515 56.9043 18.109 57.8128 18.815C59.7074 20.287 60.6639 22.1357 61.2393 24.436C61.8126 26.7278 61.6518 28.8541 62.3614 31.1094C62.4862 31.5059 62.8164 32.1895 63.2234 31.5768C63.299 31.463 63.2794 30.8376 63.2794 30.4777C63.2794 29.0249 63.6473 27.9348 63.6428 26.4726C63.6246 22.0266 63.4809 16.2292 60.1553 12.8316Z" fill="#2C1B18"/>
</g>
</svg>
