<svg width="90" height="90" viewBox="0 0 90 90" fill="none" xmlns="http://www.w3.org/2000/svg">
<g clip-path="url(#clip0_227_90)">
<path d="M45 90C69.8528 90 90 69.8528 90 45C90 20.1472 69.8528 0 45 0C20.1472 0 0 20.1472 0 45C0 69.8528 20.1472 90 45 90Z" fill="#B9EEE9"/>
<mask id="mask0_227_90" style="mask-type:luminance" maskUnits="userSpaceOnUse" x="0" y="0" width="90" height="90">
<path d="M45 90C69.8528 90 90 69.8528 90 45C90 20.1472 69.8528 0 45 0C20.1472 0 0 20.1472 0 45C0 69.8528 20.1472 90 45 90Z" fill="white"/>
</mask>
<g mask="url(#mask0_227_90)">
<path fill-rule="evenodd" clip-rule="evenodd" d="M45 11.5714C54.9412 11.5714 63 19.6303 63 29.5714L63.0003 31.5534C64.8244 31.8595 66.2143 33.446 66.2143 35.3571V39.8571C66.2143 41.8025 64.7741 43.4116 62.9017 43.6761C62.2376 50.0421 58.2551 55.4212 52.7146 58.0533L52.7143 63.9643H54C66.7815 63.9643 77.1429 74.3257 77.1429 87.1071V90H12.8572V87.1071C12.8572 74.3257 23.2186 63.9643 36 63.9643H37.2857V58.0535C31.7451 55.4214 27.7625 50.0422 27.0981 43.676C25.226 43.4116 23.7857 41.8025 23.7857 39.8571V35.3571C23.7857 33.4459 25.1758 31.8593 27.0001 31.5533L27 29.5714C27 19.6303 35.0589 11.5714 45 11.5714Z" fill="#EAC7A8"/>
<path fill-rule="evenodd" clip-rule="evenodd" d="M37.2852 58.0532C39.6234 59.1641 42.2391 59.7857 45 59.7857C47.7607 59.7857 50.3762 59.1642 52.7143 58.0535L52.7144 59.7683C50.6063 61.1994 48.0615 62.0357 45.3214 62.0357C42.2965 62.0357 39.5096 61.0165 37.2853 59.3028L37.2852 58.0532Z" fill="black" fill-opacity="0.24"/>
<path fill-rule="evenodd" clip-rule="evenodd" d="M41.1428 41.7859C41.1428 43.206 42.8697 44.3573 45 44.3573C47.1302 44.3573 48.8571 43.206 48.8571 41.7859" fill="black" fill-opacity="0.16"/>
<path fill-rule="evenodd" clip-rule="evenodd" d="M52.6757 64.8003H53.955C66.6727 64.8003 76.9821 74.9041 76.9821 87.3682V90.1892H13.0178V87.3682L13.021 86.9949C13.2244 74.7032 23.4546 64.8003 36.045 64.8003H37.3243C37.3243 64.8003 37.2612 68.6936 44.9974 68.6936C52.7336 68.6936 52.6757 64.8003 52.6757 64.8003Z" fill="#EDEDED"/>
<path fill-rule="evenodd" clip-rule="evenodd" d="M50.7294 90.1891L47.2597 72.9538C48.5489 72.539 49.413 71.7904 49.413 70.9327C49.413 69.6265 47.4131 68.5671 44.9467 68.5671C42.48 68.5671 40.4804 69.6265 40.4804 70.9327C40.4804 71.7904 41.3446 72.539 42.6338 72.9538L39.1641 90.1891H50.7294Z" fill="#EDEDED"/>
<path fill-rule="evenodd" clip-rule="evenodd" d="M40.6113 73.62L45.0065 69.1936L49.4017 73.62L58.3866 64.5711C56.9795 64.303 55.5294 64.1572 54.0447 64.1572H52.7526C52.7526 64.1572 52.811 68.1984 44.9971 68.1984C37.1832 68.1984 37.2472 64.1572 37.2472 64.1572H35.955C34.4742 64.1572 33.0277 64.3017 31.6238 64.5685L40.6113 73.62Z" fill="white"/>
<path fill-rule="evenodd" clip-rule="evenodd" d="M54.0449 63.8358H52.7595V90.189H77.3035V87.2609C77.3035 74.3234 66.8904 63.8358 54.0449 63.8358Z" fill="#8B9FC4"/>
<path fill-rule="evenodd" clip-rule="evenodd" d="M37.2472 63.8358H35.9551C23.2382 63.8358 12.9052 74.1149 12.6994 86.8734L12.6965 87.2609V90.189H37.2472V63.8358Z" fill="#8B9FC4"/>
<path fill-rule="evenodd" clip-rule="evenodd" d="M34.1918 63.902L25.5964 77.8041L32.8131 82.059L28.3687 88.2637L30.4807 90.1892H37.2474V63.8359C37.2474 63.8359 36.246 63.8496 34.1918 63.902Z" fill="#7B8FB2"/>
<path fill-rule="evenodd" clip-rule="evenodd" d="M55.8578 63.9081L64.4102 77.8043L57.1936 82.0589L61.6382 88.2637L59.5256 90.1891L52.7593 90.1887V63.8354C52.7593 63.8354 53.8037 63.8557 55.8578 63.9081Z" fill="#7B8FB3"/>
<path d="M40.5 48.2143C40.5 49.9409 42.4794 51.1071 45 51.1071C47.5206 51.1071 49.5 49.9409 49.5 48.2143C49.5 47.8592 49.1947 47.5714 48.8571 47.5714C48.4416 47.5714 48.2561 47.8624 48.2143 48.2143C47.8149 49.1586 46.8268 49.7302 45 49.8214C43.1732 49.7302 42.1851 49.1586 41.7857 48.2143C41.7439 47.8624 41.5584 47.5714 41.1429 47.5714C40.8053 47.5714 40.5 47.8592 40.5 48.2143Z" fill="black" fill-opacity="0.6"/>
<path d="M36.6429 37.9286C37.708 37.9286 38.5715 37.0651 38.5715 36C38.5715 34.9349 37.708 34.0714 36.6429 34.0714C35.5778 34.0714 34.7144 34.9349 34.7144 36C34.7144 37.0651 35.5778 37.9286 36.6429 37.9286Z" fill="black" fill-opacity="0.6"/>
<path d="M53.3573 37.9286C54.4224 37.9286 55.2859 37.0651 55.2859 36C55.2859 34.9349 54.4224 34.0714 53.3573 34.0714C52.2922 34.0714 51.4287 34.9349 51.4287 36C51.4287 37.0651 52.2922 37.9286 53.3573 37.9286Z" fill="black" fill-opacity="0.6"/>
<path d="M32.0241 31.8725C33.2825 30.1018 36.7323 29.1089 39.7039 29.8386C40.0487 29.9233 40.3969 29.7124 40.4815 29.3676C40.5662 29.0229 40.3553 28.6747 40.0105 28.59C36.5595 27.7425 32.5647 28.8923 30.9761 31.1277C30.7704 31.4171 30.8383 31.8184 31.1277 32.0241C31.4171 32.2297 31.8184 32.1619 32.0241 31.8725Z" fill="black" fill-opacity="0.6"/>
<path d="M57.9762 31.8725C56.7178 30.1018 53.268 29.1089 50.2963 29.8386C49.9515 29.9233 49.6034 29.7124 49.5187 29.3676C49.434 29.0229 49.6449 28.6747 49.9897 28.59C53.4408 27.7425 57.4356 28.8923 59.0242 31.1277C59.2298 31.4171 59.162 31.8184 58.8726 32.0241C58.5832 32.2297 58.1818 32.1619 57.9762 31.8725Z" fill="black" fill-opacity="0.6"/>
<path fill-rule="evenodd" clip-rule="evenodd" d="M26.6787 31.5C26.7902 31.9785 27.2164 31.893 27.3216 31.5C27.1728 31.0004 28.381 22.2583 31.5001 19.9286C32.6631 19.1197 38.8956 18.396 45.1006 18.4004C51.2386 18.4047 57.3497 19.1284 58.5001 19.9286C61.6193 22.2583 62.8275 31.0004 62.6787 31.5C62.7839 31.893 63.2101 31.9785 63.3216 31.5C63.5527 28.1899 63.3216 11.0168 45.0001 11.25C26.6787 11.4833 26.4476 28.1899 26.6787 31.5Z" fill="#2C1B18"/>
</g>
</g>
<defs>
<clipPath id="clip0_227_90">
<rect width="90" height="90" fill="white"/>
</clipPath>
</defs>
</svg>
