<svg width="90" height="90" viewBox="0 0 90 90" fill="none" xmlns="http://www.w3.org/2000/svg">
<path d="M45 90C69.8528 90 90 69.8528 90 45C90 20.1472 69.8528 0 45 0C20.1472 0 0 20.1472 0 45C0 69.8528 20.1472 90 45 90Z" fill="#B9EEE9"/>
<mask id="mask0_213_1296" style="mask-type:luminance" maskUnits="userSpaceOnUse" x="0" y="0" width="90" height="90">
<path d="M45 90C69.8528 90 90 69.8528 90 45C90 20.1472 69.8528 0 45 0C20.1472 0 0 20.1472 0 45C0 69.8528 20.1472 90 45 90Z" fill="white"/>
</mask>
<g mask="url(#mask0_213_1296)">
<path fill-rule="evenodd" clip-rule="evenodd" d="M45 11.5714C54.9412 11.5714 63 19.6303 63 29.5714L63.0003 31.5534C64.8244 31.8595 66.2143 33.446 66.2143 35.3571V39.8571C66.2143 41.8025 64.7741 43.4116 62.9017 43.6761C62.2376 50.0421 58.2551 55.4212 52.7146 58.0533L52.7143 63.9643H54C66.7815 63.9643 77.1429 74.3257 77.1429 87.1071V90H12.8572V87.1071C12.8572 74.3257 23.2186 63.9643 36 63.9643H37.2857L37.2857 58.0535C31.7451 55.4214 27.7625 50.0422 27.0981 43.676C25.226 43.4116 23.7857 41.8025 23.7857 39.8571V35.3571C23.7857 33.4459 25.1758 31.8593 27.0001 31.5533L27 29.5714C27 19.6303 35.0589 11.5714 45 11.5714Z" fill="#EAC7A8"/>
<path fill-rule="evenodd" clip-rule="evenodd" d="M37.2852 58.0532C39.6234 59.1641 42.2391 59.7857 45 59.7857C47.7607 59.7857 50.3762 59.1642 52.7143 58.0535L52.7144 59.7683C50.6063 61.1994 48.0615 62.0357 45.3214 62.0357C42.2965 62.0357 39.5096 61.0165 37.2853 59.3028L37.2852 58.0532Z" fill="black" fill-opacity="0.24"/>
<path fill-rule="evenodd" clip-rule="evenodd" d="M42.4287 41.4643C42.4287 43.2395 43.7296 44.0357 45.0001 44.0357C46.2707 44.0357 47.5716 43.2395 47.5716 41.4643C46.875 41.6995 46.0096 41.8171 44.9756 41.8171C43.9525 41.8171 43.1035 41.6995 42.4287 41.4643Z" fill="black" fill-opacity="0.16"/>
<path fill-rule="evenodd" clip-rule="evenodd" d="M52.7147 58.8443C58.5326 59.4953 63 61.2848 63 65.9176L62.9984 65.7786C71.31 69.2895 77.1429 77.5171 77.1429 87.107V90H12.8572V87.107C12.8572 77.517 18.6903 69.2893 27.002 65.7785C27.0903 61.2487 31.5264 59.4887 37.2857 58.8442L37.2857 64.9286C37.2857 69.1891 40.7396 72.6429 45 72.6429C49.2605 72.6429 52.7143 69.1891 52.7143 64.9286L52.7147 58.8443Z" fill="black"/>
<mask id="mask1_213_1296" style="mask-type:luminance" maskUnits="userSpaceOnUse" x="12" y="58" width="66" height="32">
<path fill-rule="evenodd" clip-rule="evenodd" d="M52.7147 58.8443C58.5326 59.4953 63 61.2848 63 65.9176L62.9984 65.7786C71.31 69.2895 77.1429 77.5171 77.1429 87.107V90H12.8572V87.107C12.8572 77.517 18.6903 69.2893 27.002 65.7785C27.0903 61.2487 31.5264 59.4887 37.2857 58.8442L37.2857 64.9286C37.2857 69.1891 40.7396 72.6429 45 72.6429C49.2605 72.6429 52.7143 69.1891 52.7143 64.9286L52.7147 58.8443Z" fill="white"/>
</mask>
<g mask="url(#mask1_213_1296)">
<path fill-rule="evenodd" clip-rule="evenodd" d="M35.3571 74.4875L35.3572 90H33.1072L33.1069 73.3338C33.8153 73.7549 34.5685 74.1409 35.3571 74.4875ZM56.8934 73.3337L56.8929 86.3036C56.8929 86.9249 56.3893 87.4286 55.7679 87.4286C55.1466 87.4286 54.6429 86.9249 54.6429 86.3036L54.6434 74.4873C55.4319 74.1407 56.185 73.7548 56.8934 73.3337Z" fill="#F4F4F4"/>
</g>
<mask id="mask2_213_1296" style="mask-type:luminance" maskUnits="userSpaceOnUse" x="12" y="58" width="66" height="32">
<path fill-rule="evenodd" clip-rule="evenodd" d="M52.7147 58.8443C58.5326 59.4953 63 61.2848 63 65.9176L62.9984 65.7786C71.31 69.2895 77.1429 77.5171 77.1429 87.107V90H12.8572V87.107C12.8572 77.517 18.6903 69.2893 27.002 65.7785C27.0903 61.2487 31.5264 59.4887 37.2857 58.8442L37.2857 64.9286C37.2857 69.1891 40.7396 72.6429 45 72.6429C49.2605 72.6429 52.7143 69.1891 52.7143 64.9286L52.7147 58.8443Z" fill="white" fill-opacity="0.16"/>
</mask>
<g mask="url(#mask2_213_1296)">
<path fill-rule="evenodd" clip-rule="evenodd" d="M58.1918 58.7329C63.0293 59.648 66.375 61.471 66.375 65.0275C66.375 71.3636 55.7557 76.5 45 76.5C34.2443 76.5 23.625 71.3636 23.625 65.0275C23.625 61.471 26.9707 59.648 31.8082 58.7329C28.8883 59.8097 27 61.6199 27 64.6319C27 71.1865 35.9425 76.5 45 76.5C54.0575 76.5 63 71.1865 63 64.6319C63 61.6823 61.1891 59.8853 58.3718 58.8008L58.1918 58.7329Z" fill="black" fill-opacity="0.16"/>
</g>
<path d="M40.5 48.2143C40.5 49.9409 42.4794 51.1071 45 51.1071C47.5206 51.1071 49.5 49.9409 49.5 48.2143C49.5 47.8592 49.1947 47.5714 48.8571 47.5714C48.4416 47.5714 48.2561 47.8624 48.2143 48.2143C47.8149 49.1586 46.8268 49.7302 45 49.8214C43.1732 49.7302 42.1851 49.1586 41.7857 48.2143C41.7439 47.8624 41.5584 47.5714 41.1429 47.5714C40.8053 47.5714 40.5 47.8592 40.5 48.2143Z" fill="black" fill-opacity="0.6"/>
<path d="M36.6429 37.9286C37.708 37.9286 38.5715 37.0651 38.5715 36C38.5715 34.9349 37.708 34.0714 36.6429 34.0714C35.5778 34.0714 34.7144 34.9349 34.7144 36C34.7144 37.0651 35.5778 37.9286 36.6429 37.9286Z" fill="black" fill-opacity="0.6"/>
<path d="M53.3573 37.9286C54.4224 37.9286 55.2859 37.0651 55.2859 36C55.2859 34.9349 54.4224 34.0714 53.3573 34.0714C52.2922 34.0714 51.4287 34.9349 51.4287 36C51.4287 37.0651 52.2922 37.9286 53.3573 37.9286Z" fill="black" fill-opacity="0.6"/>
<path d="M32.0241 31.8724C33.2825 30.1017 36.7323 29.1088 39.7039 29.8386C40.0487 29.9233 40.3969 29.7124 40.4815 29.3676C40.5662 29.0228 40.3553 28.6746 40.0105 28.59C36.5595 27.7425 32.5647 28.8922 30.9761 31.1276C30.7704 31.417 30.8383 31.8183 31.1277 32.024C31.4171 32.2297 31.8184 32.1618 32.0241 31.8724Z" fill="black" fill-opacity="0.6"/>
<path d="M57.9762 31.8724C56.7178 30.1017 53.268 29.1088 50.2963 29.8386C49.9515 29.9233 49.6034 29.7124 49.5187 29.3676C49.434 29.0228 49.6449 28.6746 49.9897 28.59C53.4408 27.7425 57.4356 28.8922 59.0242 31.1276C59.2298 31.417 59.162 31.8183 58.8726 32.024C58.5832 32.2297 58.1818 32.1618 57.9762 31.8724Z" fill="black" fill-opacity="0.6"/>
<path fill-rule="evenodd" clip-rule="evenodd" d="M68.7858 69.3026C64.776 65.969 59.6222 63.9643 54.0001 63.9643H52.7144V58.0535C58.3493 55.3767 62.3727 49.8583 62.933 43.3502C64.7901 43.0722 66.2144 41.4703 66.2144 39.5357V35.3571C66.2144 33.8637 65.3656 32.5684 64.124 31.9275C63.8756 31.8375 63.6274 31.7405 63.3796 31.637C63.2556 31.6029 63.1289 31.5749 63.0001 31.5533L63.0002 31.4734C58.8937 29.6466 54.9251 26.0584 52.107 21.1773C51.1635 19.5432 50.4101 17.8699 49.8428 16.199C47.0673 19.5881 42.9894 23.015 38.0384 25.8735C34.9643 27.6483 31.8687 29.0221 28.9286 29.9783L28.9288 49.9007C30.7293 53.4595 33.6771 56.3392 37.2858 58.0535V63.9643H36.0001C33.5339 63.9643 31.1578 64.35 28.9288 65.0645L28.9286 79.7143C28.9286 84.2483 25.5759 87.9993 21.2144 88.6231V29.5714C21.2144 16.4349 31.8636 5.78571 45.0001 5.78571C58.1366 5.78571 68.7858 16.4349 68.7858 29.5714V69.3026Z" fill="#2C1B18"/>
<path fill-rule="evenodd" clip-rule="evenodd" d="M68.7858 69.3026C64.776 65.969 59.6222 63.9643 54.0001 63.9643H52.7144V58.0535C58.3493 55.3767 62.3727 49.8583 62.9331 43.3502C64.7902 43.0722 66.2144 41.4703 66.2144 39.5357V35.3571C66.2144 33.8637 65.3656 32.5684 64.1241 31.9276C65.6898 32.4985 67.2622 32.8088 68.7858 32.8334V69.3026ZM28.9285 49.9001C30.7289 53.4591 33.6769 56.3391 37.2858 58.0535V63.9643H36.0001C33.5338 63.9643 31.1576 64.3501 28.9285 65.0646L28.9285 49.9001ZM62.9999 31.4733C63.1264 31.5295 63.253 31.5841 63.3797 31.637C63.2556 31.6029 63.1289 31.5749 63.0001 31.5533L62.9999 31.4733Z" fill="black" fill-opacity="0.24"/>
</g>
</svg>
