<svg width="341" height="89" viewBox="0 0 341 89" fill="none" xmlns="http://www.w3.org/2000/svg">
<path d="M256.239 32.3082C254.657 29.4043 250.631 25.9067 244.03 25.9067C233.866 25.9067 225.619 33.6953 225.619 45.111C225.619 55.3663 232.414 64.3855 244.03 64.3855C249.114 64.3855 253.929 62.2697 256.239 58.0488V63.2628H264.875V27.0294H256.239V32.3082ZM256.309 45.4403C256.215 47.2146 255.742 48.9482 254.922 50.5247C253.27 53.8226 250.102 56.3324 245.287 56.3324C237.499 56.3324 234.26 49.7961 234.26 45.3107V45.246C234.26 39.6326 238.222 33.9598 245.217 33.9598C250.431 33.9598 253.799 36.9284 255.316 40.3612C256.037 41.954 256.377 43.6931 256.309 45.4403V45.4403Z" fill="#0D0F12"/>
<path d="M287.204 33.9592C289.308 33.9021 291.378 34.4998 293.128 35.6696C294.878 36.8395 296.222 38.5239 296.973 40.4902H305.815C303.704 31.6491 295.98 25.917 286.875 25.917C276.08 25.917 267.8 34.4342 267.8 45.1213C267.8 55.4844 275.724 64.3957 287.204 64.3957C291.467 64.444 295.622 63.0546 298.999 60.4516C302.375 57.8487 304.776 54.1842 305.815 50.0492H296.963C295.64 53.0232 292.607 56.2563 287.193 56.2563C281.056 56.2563 276.501 51.636 276.501 45.0997C276.448 42.14 277.507 39.2682 279.469 37.052C280.471 36.0241 281.676 35.2177 283.009 34.6849C284.341 34.1522 285.77 33.905 287.204 33.9592V33.9592Z" fill="#0D0F12"/>
<path d="M181.117 27.0293L171.364 51.9981L162.301 27.0293H152.559L164.487 57.0178L166.97 63.2627C164.271 70.6411 162.182 70.1661 157.735 69.594V76.832C159.826 77.2952 161.962 77.5252 164.104 77.5175C170.435 77.5175 172.896 71.9905 174.953 66.7711C176.632 62.5178 190.233 27.0293 190.233 27.0293H181.117Z" fill="#0D0F12"/>
<path d="M140.096 34.5639C130.472 31.7842 129.176 29.7062 129.176 27.0074C129.176 24.3087 131.746 21.3239 137.543 21.3239C143.339 21.3239 150.988 24.476 150.988 24.476V15.9048C146.402 14.3256 141.583 13.5336 136.733 13.5623C125.938 13.5623 119.86 18.7979 119.86 27.1478C119.86 36.1886 124.675 39.8427 136.279 42.8005C143.879 44.7544 144.5 47.8796 144.5 49.8497C144.5 51.8197 143.226 56.1108 136.155 56.1108C128.734 56.1108 120.848 52.7103 120.848 52.7103V61.2708C123.585 62.3017 128.826 63.8777 136.852 63.8777C148.559 63.8777 154.07 57.9405 154.07 49.3855C154.07 40.8304 149.719 37.349 140.096 34.5639Z" fill="#0D0F12"/>
<path d="M206.026 25.4102C196.91 25.4102 188.889 32.7993 188.889 41.9157V63.2628H197.525V41.6728C197.525 37.3062 201.687 33.7709 206.053 33.7709C210.42 33.7709 214.581 37.3062 214.581 41.6728V63.2628H223.19V41.9157C223.163 32.7777 215.142 25.4102 206.026 25.4102Z" fill="#0D0F12"/>
<path d="M308.508 11.7871H317.144V42.65L329.116 27.035H339.981L326.142 44.1127L340.051 63.263H329.796L320.712 50.1147L317.16 54.627V63.263H308.524L308.508 11.7871Z" fill="#0D0F12"/>
<path d="M53.2654 6.27539L43.5607 23.0886H62.9755L53.2654 6.27539Z" fill="#016BFF"/>
<path d="M26.1174 15.5599L0.527832 0.527832L4.74328 13.9568L21.6374 23.8774L21.794 23.9584C27.8014 26.9 32.4486 32.2921 35.6493 40.0321L7.77127 23.6021L11.9759 37.0419L49.5965 59.2256C48.3443 45.0032 43.4433 24.1419 26.1174 15.5599Z" fill="#016BFF"/>
<path d="M14.8032 45.9631L19.0294 59.4137L43.9442 74.1057L37.7209 77.7706L37.7155 88.7707L53.2711 79.6003L68.8213 88.7707L68.8159 77.7706L62.5926 74.1057L87.5074 59.4137L91.7336 45.9631L53.2711 68.6164L14.8032 45.9631Z" fill="#016BFF"/>
<path d="M84.7391 23.9584L84.901 23.8774L101.79 13.9568L106.011 0.527832L80.4211 15.5599C63.0898 24.1419 58.1943 45.0032 56.9367 59.2256L94.5572 37.0419L98.7672 23.6021L70.8838 40.0483C74.0899 32.2921 78.7317 26.9 84.7391 23.9584Z" fill="#016BFF"/>
</svg>
