<svg width="37" height="28" viewBox="0 0 37 28" fill="none" xmlns="http://www.w3.org/2000/svg">
<path d="M22.5443 20.2956C22.2858 19.8219 21.6277 19.2511 20.5506 19.2511C18.8913 19.2511 17.5442 20.5223 17.5442 22.3863C17.5442 24.0562 18.654 25.533 20.5506 25.533C21.3798 25.533 22.1667 25.1881 22.5443 24.4982V25.3495H23.9558V19.4337H22.5443V20.2956ZM22.5549 22.4401C22.5396 22.7298 22.4626 23.0128 22.3291 23.2702C22.0591 23.8084 21.5422 24.2186 20.7553 24.2186C19.4841 24.2186 18.9557 23.1512 18.9557 22.419V22.4075C18.9557 21.4918 19.6023 20.5655 20.7447 20.5655C21.596 20.5655 22.1456 21.0498 22.3934 21.6109C22.5107 21.8711 22.5659 22.1549 22.5549 22.4401Z" fill="#0D0F12"/>
<path d="M27.6 20.5655C27.9435 20.5563 28.2814 20.654 28.5671 20.845C28.8528 21.0361 29.0722 21.311 29.1949 21.632H30.639C30.2941 20.1879 29.0335 19.2502 27.5462 19.2502C25.7818 19.2502 24.4321 20.6396 24.4321 22.3854C24.4321 24.0774 25.7254 25.5321 27.6009 25.5321C28.2963 25.54 28.9742 25.3136 29.5253 24.8894C30.0764 24.4651 30.4687 23.8678 30.639 23.1935H29.1949C28.9797 23.6787 28.4839 24.2062 27.6009 24.2062C26.5987 24.2062 25.8551 23.4519 25.8551 22.3854C25.8462 21.9021 26.019 21.433 26.3394 21.071C26.5026 20.9034 26.6991 20.7719 26.9162 20.6848C27.1333 20.5978 27.3662 20.5571 27.6 20.5655V20.5655Z" fill="#0D0F12"/>
<path d="M10.2786 19.4337L8.68633 23.5102L7.20606 19.4337H5.61816L7.5651 24.3297L7.97089 25.3495C7.53422 26.5537 7.18841 26.4769 6.46239 26.3834V27.5646C6.80326 27.6405 7.15149 27.6784 7.5007 27.6775C8.53459 27.6775 8.93598 26.776 9.27208 25.9238C9.54643 25.2295 11.7668 19.4346 11.7668 19.4346L10.2786 19.4337Z" fill="#0D0F12"/>
<path d="M3.58129 20.6643C2.01016 20.21 1.79844 19.8704 1.79844 19.4337C1.79844 18.997 2.21835 18.503 3.16491 18.503C4.11148 18.503 5.35886 19.0173 5.35886 19.0173V17.6209C4.61041 17.3623 3.82354 17.2326 3.03171 17.2371C1.27179 17.2371 0.277588 18.0928 0.277588 19.4558C0.277588 20.9325 1.0636 21.5288 2.95849 22.014C4.19881 22.3325 4.30026 22.8433 4.30026 23.1653C4.30026 23.4873 4.09207 24.1877 2.93732 24.1877C1.7261 24.1877 0.438143 23.6319 0.438143 23.6319V25.031C0.884518 25.1995 1.7411 25.4571 3.05111 25.4571C4.96277 25.4571 5.86257 24.4912 5.86257 23.0903C5.86257 21.6894 5.15243 21.1186 3.58129 20.6643Z" fill="#0D0F12"/>
<path d="M14.3453 19.1691C12.8563 19.1691 11.5471 20.3759 11.5471 21.865V25.3495H12.9533V21.8261C12.9533 21.1142 13.6326 20.5364 14.3453 20.5364C15.0581 20.5364 15.7374 21.1142 15.7374 21.8261V25.3495H17.1427V21.865C17.1427 20.3759 15.8336 19.1691 14.3453 19.1691Z" fill="#0D0F12"/>
<path d="M31.0774 16.9451H32.4889V21.9841L34.4429 19.4346H36.2169L33.9586 22.2231L36.2293 25.3495H34.5531L33.072 23.2032L32.4924 23.9398V25.3513H31.0809L31.0774 16.9451Z" fill="#0D0F12"/>
<path d="M18.2526 1.23553L16.6682 3.98083H19.8369L18.2526 1.23553Z" fill="#016BFF"/>
<path d="M13.8194 2.7502L9.64062 0.296021L10.3296 2.4882L13.0872 4.10874L13.1137 4.12109C14.0947 4.60187 14.8525 5.48227 15.3756 6.74553L10.8236 4.0611L11.5143 6.25769L17.6533 9.87457C17.4478 7.558 16.6477 4.15549 13.8194 2.7502Z" fill="#016BFF"/>
<path d="M11.9724 7.71503L12.6623 9.91162L16.7308 12.3102L15.7146 12.9083L15.7128 14.7044L18.2526 13.2074L20.7923 14.7044L20.7905 12.9083L19.7743 12.3102L23.842 9.91162L24.5327 7.71503L18.2526 11.414L11.9724 7.71503Z" fill="#016BFF"/>
<path d="M23.3903 4.12371L23.4168 4.11136L26.1744 2.49083L26.8634 0.298645L22.6855 2.75283C19.8563 4.15812 19.0562 7.56063 18.8516 9.87984L24.9905 6.26296L25.6804 4.06637L21.1293 6.7508C21.6516 5.48225 22.4102 4.60185 23.3903 4.12371Z" fill="#016BFF"/>
</svg>
