<svg width="111" height="25" viewBox="0 0 111 25" fill="none" xmlns="http://www.w3.org/2000/svg">
<path d="M93.0824 24.4359H98.5013V14.4018C98.5013 12.1122 99.8213 10.4924 101.767 10.4924C103.644 10.4924 104.616 11.8302 104.616 13.732V24.4359H110.035V12.6763C110.035 8.69638 107.673 5.87984 103.851 5.87984C101.42 5.87984 99.7169 6.93558 98.4318 8.87264H98.3274V6.40864H93.0824V24.4359ZM82.4515 5.91509C76.7891 5.91509 73.0014 10.0341 73.0014 15.4575C73.0014 20.8457 76.7873 25 82.4515 25C88.1157 25 91.9016 20.8457 91.9016 15.4575C91.9016 10.036 88.1157 5.91509 82.4515 5.91509ZM82.4167 20.9496C79.8464 20.9496 78.4917 18.7676 78.4917 15.4575C78.4917 12.1122 79.8464 9.96549 82.4167 9.96549C84.987 9.96549 86.4113 12.1141 86.4113 15.4575C86.4132 18.7676 84.9889 20.9496 82.4167 20.9496ZM57.5776 24.4359H72.7945V20.1054H64.1792V19.9996L72.4119 10.6334V6.40864H57.5776V10.7392H65.9147V10.845L57.5776 20.2817V24.4359ZM50.6283 24.4359H56.0819V6.40864H50.6283V24.4359ZM37.9835 24.4359H43.4024V16.1626C43.4024 12.3942 45.6268 10.7392 49.03 11.1975H49.1344V6.44389C48.8561 6.33813 48.5431 6.30288 48.0232 6.30288C45.9032 6.30288 44.4789 7.28811 43.2633 9.40144H43.159V6.40864H37.9835V24.4359ZM28.0117 20.9867C25.6153 20.9867 24.1562 19.4022 23.8779 16.9734H36.6965C36.7313 13.0993 35.7244 10.0007 33.6045 8.06553C32.1106 6.65727 30.1298 5.8817 27.629 5.8817C22.2797 5.8817 18.5615 10.0007 18.5615 15.3889C18.5615 20.8104 22.1058 24.9666 27.9769 24.9666C30.2012 24.9666 31.9715 24.3673 33.4306 23.3468C34.994 22.2558 36.1052 20.6713 36.4183 19.0868H31.2081C30.6882 20.2817 29.6099 20.9867 28.0117 20.9867ZM27.7352 9.82448C29.6465 9.82448 30.9664 11.268 31.1751 13.3813H23.9145C24.3301 11.2327 25.4761 9.82448 27.7352 9.82448ZM50.6283 0H56.0819V4.89461H50.6283V0Z" fill="#F50A23"/>
<path d="M0 6.40866L6.74434 24.2133C6.7956 24.3488 6.92375 24.4378 7.06654 24.4378H12.5385C12.3957 24.4378 12.2676 24.3488 12.2163 24.2133L5.47199 6.40866H0Z" fill="url(#paint0_radial_2_29)"/>
<path d="M19.6051 6.40866L12.8607 24.2133C12.8095 24.3488 12.6813 24.4378 12.5385 24.4378H7.06653C7.20932 24.4378 7.33747 24.3488 7.38873 24.2133L14.1331 6.40866H19.6051Z" fill="#F50A23"/>
<defs>
<radialGradient id="paint0_radial_2_29" cx="0" cy="0" r="1" gradientUnits="userSpaceOnUse" gradientTransform="translate(9.70451 18.2223) rotate(-90) scale(8.55346 7.65648)">
<stop stop-color="#F5FF1E"/>
<stop offset="1" stop-color="#F50A23"/>
</radialGradient>
</defs>
</svg>
